<svg width="118" height="119" viewBox="0 0 118 119" fill="none" xmlns="http://www.w3.org/2000/svg">
<g filter="url(#filter0_d)">
<path d="M90 42C103.5 59 101.128 83.0396 84.5 94C67.8724 104.96 46.593 100.104 34 81C17 52.5 22.5 38.197 36.5 28C53.3128 15.7543 69 20.5 90 42Z" fill="#0B0A0A"/>
<path d="M60.7116 62.8145C81.0359 85.4292 84.897 88.1387 75.0909 93.6242C66.1587 99.6407 49.94 95.7876 40.9001 84.13C30.8301 69.1798 29.4698 63.7728 38.5 57C49.9628 48.4027 47.8468 48.5 60.7116 62.8145Z" fill="#DF2015"/>
<path d="M62.9244 61.4312C82.6438 84.5753 84.8173 88.7617 91.5548 79.7697C98.7028 71.7143 97.0348 55.1279 86.6791 44.6218C73.1965 32.6579 68.9106 29.9478 61 38C50.9584 48.2213 50.4426 46.7816 62.9244 61.4312Z" fill="#DF2015"/>
<circle cx="36" cy="47" r="6" fill="white"/>
<circle cx="51" cy="34" r="6" fill="white"/>
<circle cx="37.5" cy="42.5" r="3.5" fill="#0B0A0A"/>
<circle cx="52.5" cy="29.5" r="3.5" fill="#0B0A0A"/>
<path d="M33.5001 35.28C33.5001 37.213 25.4412 28.7434 15.5001 28.7434C5.55893 28.7434 7.5 42.7434 4.5 44.2434C-1.00002 44.2434 5.55894 25.28 15.5001 25.28C25.4412 25.28 38.0001 35.28 33.5001 35.28Z" fill="#0B0A0A"/>
<path d="M42.7003 12.9486C41.3399 20.56 43.8752 31.9518 40.8767 31.4159C38.3883 30.9711 37.8945 19.9442 39.2549 12.3328C40.6152 4.72145 54.3571 0.302232 55.1478 2.98316C56.7291 8.34501 44.0606 5.33724 42.7003 12.9486Z" fill="#0B0A0A"/>
<path d="M89 66C89 69.3137 86.3137 71.5 83 71.5C79.6863 71.5 77 70.3137 77 67C77 63.6863 79.6863 61 83 61C86.3137 61 89 62.6863 89 66Z" fill="#0B0A0A"/>
<path d="M62.9696 77.0305C65.7791 78.7876 66.2083 82.2244 64.4511 85.0339C62.694 87.8434 60.2637 89.4918 57.4543 87.7347C54.6448 85.9775 53.7917 82.2756 55.5489 79.4661C57.306 76.6566 60.1602 75.2733 62.9696 77.0305Z" fill="#0B0A0A"/>
<path d="M52.3804 62.5703C55.9669 65.5993 55.8778 70.5052 52.8488 74.0917C49.8198 77.6782 46.0804 79.5012 42.4939 76.4723C38.9074 73.4433 38.4555 68.0804 41.4844 64.4939C44.5134 60.9074 48.7939 59.5414 52.3804 62.5703Z" fill="#0B0A0A"/>
<path d="M81 49.1429C81 53.8767 77.1944 57 72.5 57C67.8056 57 64 55.3053 64 50.5714C64 45.8376 67.8056 42 72.5 42C77.1944 42 81 44.409 81 49.1429Z" fill="#0B0A0A"/>
<path d="M77.5 26.5C74.9176 29.7386 76.5869 32.3925 71.7366 31.083C70.2252 29.8779 71.0934 26.2755 73.6758 23.0369C76.2581 19.7982 82.1607 18.2916 83.6721 19.4967C85.7903 25.6622 80.0824 23.2614 77.5 26.5Z" fill="#0B0A0A"/>
<path d="M22.7177 67.3927C26.7448 66.4231 27.0575 63.3036 30.0808 67.3162C30.5333 69.1955 27.6355 71.5049 23.6084 72.4745C19.5814 73.4441 15.9525 71.8793 15.5 70C15.5 64.5 18.6906 68.3623 22.7177 67.3927Z" fill="#0B0A0A"/>
<path d="M37.0012 82.5153C38.5801 85.6632 37.0141 84.4949 34.96 88.3481C32.9058 92.2013 38.109 94.2338 33.9916 95.4395C30.7928 96.3761 27.0132 90.0889 29.0673 86.2357C31.1215 82.3825 33.9916 76.5154 37.0012 82.5153Z" fill="#0B0A0A"/>
<path d="M87.9457 43.5845C88.8762 46.2676 90.7768 43.7158 94.9022 42.2849C99.0277 40.8541 100.227 46.3098 102.058 42.4296C103.48 39.4151 97.856 34.7049 93.7306 36.1357C89.6051 37.5666 84.8959 39.4317 87.9457 43.5845Z" fill="#0B0A0A"/>
<path d="M54.7688 95.4869C57.4185 97.375 54.781 97.9657 54.7688 102C54.7566 106.034 57.61 106.736 54.7688 109.5C52.5614 111.647 49.4878 108.534 49.5 104.5C49.5122 100.466 49.7182 91.8879 54.7688 95.4869Z" fill="#0B0A0A"/>
<path d="M97.0878 61.3084C98.425 64.2746 99.517 61.8022 103.477 62.5743C107.436 63.3464 107.237 66.2499 110.5 64C113.035 62.2521 110.913 58.6639 106.953 57.8918C102.993 57.1197 94.5391 55.6547 97.0878 61.3084Z" fill="#0B0A0A"/>
</g>
<defs>
<filter id="filter0_d" x="0.500458" y="2.19535" width="117.1" height="116.005" filterUnits="userSpaceOnUse" color-interpolation-filters="sRGB">
<feFlood flood-opacity="0" result="BackgroundImageFix"/>
<feColorMatrix in="SourceAlpha" type="matrix" values="0 0 0 0 0 0 0 0 0 0 0 0 0 0 0 0 0 0 127 0"/>
<feOffset dx="2" dy="4"/>
<feGaussianBlur stdDeviation="2"/>
<feColorMatrix type="matrix" values="0 0 0 0 0 0 0 0 0 0 0 0 0 0 0 0 0 0 0.25 0"/>
<feBlend mode="normal" in2="BackgroundImageFix" result="effect1_dropShadow"/>
<feBlend mode="normal" in="SourceGraphic" in2="effect1_dropShadow" result="shape"/>
</filter>
</defs>
</svg>
