<svg width="495" height="480" viewBox="0 0 495 480" fill="none" xmlns="http://www.w3.org/2000/svg">
<circle cx="247.5" cy="241.5" r="121.5" fill="#FFCD48" stroke="#FFBB07" stroke-width="10"/>
<rect x="136.279" y="27.9811" width="31" height="87.6016" rx="12.5" transform="rotate(-22.5283 136.279 27.9811)" fill="#FFCD48" stroke="#FFBB07" stroke-width="5"/>
<rect x="180.914" y="383.85" width="31" height="87.6016" rx="12.5" transform="rotate(17.9959 180.914 383.85)" fill="#FFCD48" stroke="#FFBB07" stroke-width="5"/>
<rect x="109.164" y="323.468" width="31" height="87.6016" rx="12.5" transform="rotate(47.6059 109.164 323.468)" fill="#FFCD48" stroke="#FFBB07" stroke-width="5"/>
<rect x="429.164" y="71.4681" width="31" height="87.6016" rx="12.5" transform="rotate(47.6059 429.164 71.4681)" fill="#FFCD48" stroke="#FFBB07" stroke-width="5"/>
<rect x="303.914" y="3.84993" width="31" height="87.6016" rx="12.5" transform="rotate(17.9959 303.914 3.84993)" fill="#FFCD48" stroke="#FFBB07" stroke-width="5"/>
<rect x="298.733" y="395.61" width="31" height="87.6016" rx="12.5" transform="rotate(-22.5283 298.733 395.61)" fill="#FFCD48" stroke="#FFBB07" stroke-width="5"/>
<rect x="34.5233" y="116.06" width="31" height="87.6016" rx="12.5" transform="rotate(-55.4642 34.5233 116.06)" fill="#FFCD48" stroke="#FFBB07" stroke-width="5"/>
<rect x="370.523" y="334.06" width="31" height="87.6016" rx="12.5" transform="rotate(-55.4642 370.523 334.06)" fill="#FFCD48" stroke="#FFBB07" stroke-width="5"/>
<rect x="5.13407" y="269.32" width="31" height="87.6016" rx="12.5" transform="rotate(-93.2787 5.13407 269.32)" fill="#FFCD48" stroke="#FFBB07" stroke-width="5"/>
<rect x="404.134" y="248.32" width="31" height="87.6016" rx="12.5" transform="rotate(-93.2787 404.134 248.32)" fill="#FFCD48" stroke="#FFBB07" stroke-width="5"/>
</svg>
