<svg width="516" height="507" viewBox="0 0 516 507" fill="none" xmlns="http://www.w3.org/2000/svg">
<circle cx="260.777" cy="250.808" r="121.5" transform="rotate(-69.1072 260.777 250.808)" fill="#FFCD48" stroke="#FFBB07" stroke-width="10"/>
<rect x="12.4413" y="272.506" width="31" height="87.6016" rx="12.5" transform="rotate(-91.6355 12.4413 272.506)" fill="#FFCD48" stroke="#FFBB07" stroke-width="5"/>
<rect x="382.605" y="358.192" width="31" height="87.6016" rx="12.5" transform="rotate(-51.1113 382.605 358.192)" fill="#FFCD48" stroke="#FFBB07" stroke-width="5"/>
<rect x="303.901" y="407.728" width="31" height="87.6016" rx="12.5" transform="rotate(-15.3711 303.901 407.728)" fill="#FFCD48" stroke="#FFBB07" stroke-width="5"/>
<rect x="182.548" y="15.8635" width="31" height="87.6016" rx="12.5" transform="rotate(-15.1179 182.548 15.8635)" fill="#FFCD48" stroke="#FFBB07" stroke-width="5"/>
<rect x="58.8716" y="113.352" width="31" height="87.6016" rx="12.5" transform="rotate(-51.1113 58.8716 113.352)" fill="#FFCD48" stroke="#FFBB07" stroke-width="5"/>
<rect x="416.33" y="269.048" width="31" height="87.6016" rx="12.5" transform="rotate(-91.6355 416.33 269.048)" fill="#FFCD48" stroke="#FFBB07" stroke-width="5"/>
<rect x="67.6334" y="405.047" width="31" height="87.6016" rx="12.5" transform="rotate(-124.571 67.6334 405.047)" fill="#FFCD48" stroke="#FFBB07" stroke-width="5"/>
<rect x="398.641" y="169.849" width="31" height="87.6016" rx="12.5" transform="rotate(-124.571 398.641 169.849)" fill="#FFCD48" stroke="#FFBB07" stroke-width="5"/>
<rect x="196.959" y="492.362" width="31" height="87.6016" rx="12.5" transform="rotate(-162.386 196.959 492.362)" fill="#FFCD48" stroke="#FFBB07" stroke-width="5"/>
<rect x="331.824" y="108.697" width="31" height="87.6016" rx="12.5" transform="rotate(-154.074 331.824 108.697)" fill="#FFCD48" stroke="#FFBB07" stroke-width="5"/>
</svg>
