<svg width="308" height="299" viewBox="0 0 308 299" fill="none" xmlns="http://www.w3.org/2000/svg">
<g filter="url(#filter0_d)">
<path d="M239.681 98.095C268.626 93.8179 293.972 103.083 296.293 118.79C298.614 134.496 277.031 150.696 248.086 154.973C219.141 159.25 193.795 149.985 191.474 134.279C189.154 118.572 210.736 102.372 239.681 98.095Z" fill="#510909"/>
<ellipse cx="86.74" cy="86.3257" rx="28.7479" ry="52.9783" transform="rotate(-45.6925 86.74 86.3257)" fill="#510909"/>
<ellipse cx="236.706" cy="177.75" rx="28.7479" ry="52.9783" transform="rotate(-65.745 236.706 177.75)" fill="#510909"/>
<ellipse cx="128.426" cy="60.825" rx="28.7479" ry="52.9783" transform="rotate(-8.70269 128.426 60.825)" fill="#510909"/>
<ellipse cx="182.12" cy="59.5745" rx="28.7479" ry="52.9783" transform="rotate(19.7388 182.12 59.5745)" fill="#510909"/>
<path d="M62.6907 104.043C91.6843 107.977 113.458 123.919 111.324 139.652C109.189 155.385 83.955 164.951 54.9615 161.017C25.968 157.084 4.19436 141.141 6.32873 125.409C8.46309 109.676 33.6972 100.11 62.6907 104.043Z" fill="#510909"/>
<path d="M56.3554 159.348C82.4897 146.191 109.463 147.022 116.602 161.204C123.742 175.385 108.343 197.547 82.2087 210.703C56.0745 223.86 29.101 223.029 21.9618 208.848C14.8226 194.666 30.2211 172.504 56.3554 159.348Z" fill="#510909"/>
<path d="M82.5079 215.288C96.034 189.343 118.412 174.26 132.491 181.6C146.569 188.94 147.017 215.922 133.491 241.867C119.965 267.812 97.5873 282.895 83.5086 275.555C69.4299 268.215 68.9819 241.233 82.5079 215.288Z" fill="#510909"/>
<path d="M183.2 238.215C165.035 215.277 160.401 188.692 172.848 178.835C185.295 168.979 210.11 179.583 228.274 202.522C246.438 225.46 251.073 252.045 238.626 261.902C226.179 271.758 201.364 261.153 183.2 238.215Z" fill="#510909"/>
<path d="M128.629 239.295C126.087 210.147 136.849 185.399 152.666 184.02C168.483 182.641 183.366 205.152 185.908 234.301C188.449 263.449 177.688 288.197 161.871 289.576C146.054 290.955 131.171 268.444 128.629 239.295Z" fill="#510909"/>
<path d="M203.619 65.9367C224.896 45.8515 250.979 38.9285 261.878 50.4738C272.777 62.0191 264.364 87.6606 243.088 107.746C221.812 127.831 195.728 134.754 184.829 123.209C173.93 111.663 182.343 86.0219 203.619 65.9367Z" fill="#510909"/>
<ellipse cx="106.191" cy="65.2027" rx="28.7479" ry="52.9783" transform="rotate(-28.1426 106.191 65.2027)" fill="#780808"/>
<ellipse cx="157.086" cy="53.9575" rx="28.7479" ry="52.9783" transform="rotate(2.01747 157.086 53.9575)" fill="#780808"/>
<ellipse cx="203.491" cy="71.6728" rx="28.7479" ry="52.9783" transform="rotate(31.8177 203.491 71.6728)" fill="#780808"/>
<ellipse cx="235.784" cy="105.958" rx="28.7479" ry="52.9783" transform="rotate(62.4968 235.784 105.958)" fill="#780808"/>
<ellipse cx="246.953" cy="156.427" rx="28.7479" ry="52.9783" transform="rotate(97.8163 246.953 156.427)" fill="#780808"/>
<ellipse cx="131.649" cy="238.312" rx="28.7479" ry="52.9783" transform="rotate(6.69395 131.649 238.312)" fill="#780808"/>
<ellipse cx="66.0251" cy="105.618" rx="28.7479" ry="52.9783" transform="rotate(-61.4247 66.0251 105.618)" fill="#780808"/>
<ellipse cx="56.5562" cy="160.082" rx="28.7479" ry="52.9783" transform="rotate(-98.2529 56.5562 160.082)" fill="#780808"/>
<ellipse cx="82.1978" cy="214.072" rx="28.7479" ry="52.9783" transform="rotate(-135.761 82.1978 214.072)" fill="#780808"/>
<ellipse cx="181.544" cy="234.523" rx="28.7479" ry="52.9783" transform="rotate(-15.5678 181.544 234.523)" fill="#780808"/>
<ellipse cx="224.7" cy="203.528" rx="28.7479" ry="52.9783" transform="rotate(-52.9593 224.7 203.528)" fill="#780808"/>
<circle cx="156" cy="145" r="90" fill="#EBEBEB"/>
<circle cx="156" cy="144" r="80" fill="#F0DB4F"/>
<path fill-rule="evenodd" clip-rule="evenodd" d="M192.675 161.755C203.706 166.228 207.43 171.025 208.347 176.736C209.228 181.651 208.132 184.839 207.967 185.317C203.897 199.239 181.205 199.691 172.137 190.493C171.863 190.184 171.604 189.895 171.357 189.621C169.879 187.977 168.857 186.84 167.877 184.698C170.319 183.294 171.523 182.601 172.727 181.906C173.9 181.23 175.072 180.552 177.385 179.213C179.932 183.128 182.288 185.281 186.524 186.162C192.272 186.864 198.055 184.888 196.758 178.784C195.985 175.894 192.153 174.271 187.685 172.379C184.445 171.007 180.871 169.494 177.885 167.253C170.674 162.41 168.984 150.642 174.91 143.918C176.885 141.431 180.253 139.576 183.787 138.683L187.475 138.206C194.555 138.063 198.982 139.932 202.231 143.561C203.135 144.477 203.872 145.465 205.253 147.606C204.471 148.105 203.851 148.499 203.312 148.842C201.253 150.152 200.372 150.713 196.09 153.485C194.935 150.998 193.02 149.439 190.997 148.761C187.856 147.809 183.893 148.844 183.072 152.164C182.786 153.187 182.846 154.139 183.298 155.829C184.328 158.18 187.324 159.454 190.46 160.788C191.199 161.102 191.945 161.419 192.675 161.755ZM149.753 138.943H161.462C161.462 142.515 161.469 146.083 161.475 149.648C161.488 156.832 161.501 164.006 161.461 171.18C161.465 172.152 161.48 173.11 161.495 174.053C161.583 179.495 161.663 184.435 159.391 188.624C157.547 192.373 154.025 194.836 149.943 196.025C143.671 197.465 137.674 196.644 133.212 193.966C130.225 192.134 127.893 189.314 126.31 186.065L135.83 180.235C135.906 180.267 136.116 180.636 136.4 181.135L136.497 181.306C137.71 183.34 138.757 184.779 140.816 185.791C142.839 186.481 147.278 186.922 148.991 183.364C149.826 181.921 149.783 177.872 149.732 173.025C149.719 171.797 149.705 170.517 149.705 169.215L149.753 138.943Z" fill="#323330"/>
</g>
<defs>
<filter id="filter0_d" x="0" y="0" width="307.349" height="298.28" filterUnits="userSpaceOnUse" color-interpolation-filters="sRGB">
<feFlood flood-opacity="0" result="BackgroundImageFix"/>
<feColorMatrix in="SourceAlpha" type="matrix" values="0 0 0 0 0 0 0 0 0 0 0 0 0 0 0 0 0 0 127 0"/>
<feOffset dx="2" dy="2"/>
<feGaussianBlur stdDeviation="1"/>
<feColorMatrix type="matrix" values="0 0 0 0 0 0 0 0 0 0 0 0 0 0 0 0 0 0 0.25 0"/>
<feBlend mode="normal" in2="BackgroundImageFix" result="effect1_dropShadow"/>
<feBlend mode="normal" in="SourceGraphic" in2="effect1_dropShadow" result="shape"/>
</filter>
</defs>
</svg>
