<svg width="308" height="299" viewBox="0 0 308 299" fill="none" xmlns="http://www.w3.org/2000/svg">
<g filter="url(#filter0_d)">
<path d="M239.681 98.095C268.626 93.8179 293.972 103.083 296.293 118.79C298.614 134.496 277.031 150.696 248.086 154.973C219.141 159.25 193.795 149.985 191.475 134.279C189.154 118.572 210.737 102.372 239.681 98.095Z" fill="#510909"/>
<ellipse cx="86.74" cy="86.3257" rx="28.7479" ry="52.9783" transform="rotate(-45.6925 86.74 86.3257)" fill="#510909"/>
<ellipse cx="236.706" cy="177.75" rx="28.7479" ry="52.9783" transform="rotate(-65.745 236.706 177.75)" fill="#510909"/>
<ellipse cx="128.426" cy="60.825" rx="28.7479" ry="52.9783" transform="rotate(-8.70269 128.426 60.825)" fill="#510909"/>
<ellipse cx="182.12" cy="59.5745" rx="28.7479" ry="52.9783" transform="rotate(19.7388 182.12 59.5745)" fill="#510909"/>
<path d="M62.6908 104.043C91.6843 107.977 113.458 123.919 111.324 139.652C109.189 155.385 83.9551 164.951 54.9616 161.017C25.968 157.084 4.19439 141.141 6.32876 125.409C8.46312 109.676 33.6973 100.11 62.6908 104.043Z" fill="#510909"/>
<path d="M56.3554 159.348C82.4897 146.191 109.463 147.022 116.602 161.204C123.742 175.385 108.343 197.547 82.2088 210.703C56.0745 223.86 29.101 223.029 21.9618 208.848C14.8226 194.666 30.2211 172.504 56.3554 159.348Z" fill="#510909"/>
<path d="M82.508 215.288C96.034 189.343 118.412 174.26 132.491 181.6C146.569 188.94 147.017 215.922 133.491 241.867C119.965 267.812 97.5873 282.895 83.5086 275.555C69.4299 268.215 68.9819 241.233 82.508 215.288Z" fill="#510909"/>
<path d="M183.2 238.215C165.035 215.277 160.401 188.692 172.848 178.835C185.295 168.979 210.11 179.583 228.274 202.522C246.439 225.46 251.073 252.045 238.626 261.902C226.179 271.758 201.364 261.153 183.2 238.215Z" fill="#510909"/>
<path d="M128.629 239.295C126.087 210.147 136.849 185.399 152.666 184.02C168.483 182.641 183.366 205.152 185.908 234.301C188.449 263.449 177.688 288.197 161.871 289.576C146.054 290.955 131.171 268.444 128.629 239.295Z" fill="#510909"/>
<path d="M203.619 65.9367C224.896 45.8515 250.979 38.9285 261.878 50.4738C272.777 62.0191 264.364 87.6606 243.088 107.746C221.812 127.831 195.728 134.754 184.829 123.209C173.931 111.663 182.343 86.0219 203.619 65.9367Z" fill="#510909"/>
<ellipse cx="106.191" cy="65.2027" rx="28.7479" ry="52.9783" transform="rotate(-28.1426 106.191 65.2027)" fill="#780808"/>
<ellipse cx="157.086" cy="53.9575" rx="28.7479" ry="52.9783" transform="rotate(2.01747 157.086 53.9575)" fill="#780808"/>
<ellipse cx="203.491" cy="71.6728" rx="28.7479" ry="52.9783" transform="rotate(31.8177 203.491 71.6728)" fill="#780808"/>
<ellipse cx="235.784" cy="105.958" rx="28.7479" ry="52.9783" transform="rotate(62.4968 235.784 105.958)" fill="#780808"/>
<ellipse cx="246.953" cy="156.427" rx="28.7479" ry="52.9783" transform="rotate(97.8163 246.953 156.427)" fill="#780808"/>
<ellipse cx="131.649" cy="238.312" rx="28.7479" ry="52.9783" transform="rotate(6.69395 131.649 238.312)" fill="#780808"/>
<ellipse cx="66.0252" cy="105.618" rx="28.7479" ry="52.9783" transform="rotate(-61.4247 66.0252 105.618)" fill="#780808"/>
<ellipse cx="56.5562" cy="160.082" rx="28.7479" ry="52.9783" transform="rotate(-98.2529 56.5562 160.082)" fill="#780808"/>
<ellipse cx="82.1978" cy="214.072" rx="28.7479" ry="52.9783" transform="rotate(-135.761 82.1978 214.072)" fill="#780808"/>
<ellipse cx="181.544" cy="234.523" rx="28.7479" ry="52.9783" transform="rotate(-15.5678 181.544 234.523)" fill="#780808"/>
<ellipse cx="224.7" cy="203.528" rx="28.7479" ry="52.9783" transform="rotate(-52.9593 224.7 203.528)" fill="#780808"/>
<circle cx="156" cy="145" r="90" fill="#EBEBEB"/>
<path d="M196.443 139.601L159.352 118.002C157.013 116.666 153.967 116.666 151.609 118.002L114.122 139.601C111.708 140.994 110 143.611 110 146.411V189.551C110 192.351 111.753 194.969 114.167 196.37L124.071 202.011C128.805 204.349 130.478 204.349 132.632 204.349C139.641 204.349 143.645 200.099 143.645 192.685V150.095C143.645 149.493 143.333 148.598 142.744 148.598H138.014C137.415 148.598 136.075 149.493 136.075 150.094V192.684C136.075 195.971 133.111 199.241 127.571 196.463L117.337 190.547C116.98 190.353 116.729 189.963 116.729 189.551V146.411C116.729 146.004 117.196 145.596 117.555 145.388L154.921 123.826C155.27 123.628 155.783 123.628 156.131 123.826L193.041 145.383C193.395 145.596 193.27 145.992 193.27 146.411V189.551C193.27 189.963 193.424 190.364 193.075 190.562L155.993 212.136C155.675 212.328 155.281 212.328 154.933 212.136L145.422 206.443C145.135 206.276 144.795 206.216 144.52 206.371C141.873 207.875 141.386 208.074 138.903 208.937C138.293 209.151 137.392 209.521 139.248 210.565L151.695 217.949C152.887 218.641 154.241 219 155.604 219C156.985 219 158.337 218.641 159.529 217.949L196.442 196.37C198.856 194.959 200 192.351 200 189.551V146.411C200 143.611 198.856 141 196.443 139.601V139.601ZM167.12 182.715C157.257 182.715 155.085 179.986 154.361 175.068C154.277 174.538 153.828 173.904 153.291 173.904H148.47C147.874 173.904 147.394 174.63 147.394 175.225C147.394 181.523 150.809 189.154 167.121 189.154C178.93 189.154 185.7 184.552 185.7 176.409C185.7 168.334 180.26 166.215 168.809 164.695C157.233 163.161 156.057 162.386 156.057 159.666C156.057 157.424 157.053 154.434 165.624 154.434C173.283 154.434 176.105 156.082 177.267 161.259C177.366 161.746 177.809 162.095 178.31 162.095H183.15C183.447 162.095 183.732 161.974 183.94 161.761C184.142 161.531 184.249 161.244 184.222 160.935C183.473 152.02 177.567 147.866 165.623 147.866C154.999 147.866 148.661 152.365 148.661 159.908C148.661 168.088 154.967 170.349 165.166 171.36C177.366 172.56 178.315 174.348 178.315 176.755C178.315 180.934 174.969 182.715 167.12 182.715Z" fill="#83CD29"/>
<path d="M203.982 96.43C204.295 96.247 204.488 95.913 204.488 95.55V93.196C204.488 92.834 204.296 92.5 203.982 92.317L195.618 87.461C195.303 87.278 194.915 87.277 194.599 87.459L186.183 92.318C185.869 92.5 185.675 92.835 185.675 93.198V102.914C185.675 103.279 185.871 103.617 186.189 103.798L194.552 108.563C194.86 108.74 195.238 108.741 195.549 108.569L200.607 105.757C200.768 105.667 200.868 105.499 200.869 105.317C200.87 105.133 200.772 104.963 200.613 104.872L192.145 100.012C191.986 99.921 191.889 99.753 191.889 99.572V96.526C191.889 96.344 191.986 96.177 192.143 96.087L194.78 94.567C194.936 94.476 195.13 94.476 195.287 94.567L197.924 96.087C198.082 96.178 198.179 96.345 198.179 96.526V98.922C198.179 99.105 198.276 99.273 198.433 99.363C198.591 99.454 198.785 99.454 198.943 99.362L203.982 96.43" fill="#404137"/>
<path d="M194.984 95.974C195.045 95.94 195.119 95.94 195.179 95.974L196.794 96.907C196.854 96.942 196.891 97.007 196.891 97.076V98.941C196.891 99.011 196.854 99.075 196.794 99.11L195.179 100.042C195.119 100.077 195.044 100.077 194.984 100.042L193.37 99.11C193.309 99.075 193.272 99.011 193.272 98.941V97.076C193.272 97.007 193.309 96.942 193.37 96.907L194.984 95.974Z" fill="#83CD29"/>
<path d="M173.083 99.854C173.083 99.944 173.035 100.028 172.956 100.074L170.066 101.74C169.987 101.786 169.89 101.786 169.812 101.74L166.922 100.074C166.843 100.028 166.795 99.944 166.795 99.854V96.516C166.795 96.426 166.844 96.341 166.922 96.295L169.812 94.627C169.891 94.58 169.988 94.58 170.067 94.627L172.958 96.295C173.036 96.341 173.084 96.426 173.084 96.516V99.854H173.083ZM173.864 75.138C173.707 75.051 173.515 75.053 173.359 75.144C173.204 75.236 173.108 75.402 173.108 75.582V88.497C173.108 88.623 173.04 88.741 172.931 88.805C172.821 88.868 172.685 88.868 172.575 88.805L170.467 87.59C170.153 87.409 169.766 87.409 169.452 87.59L161.034 92.448C160.719 92.63 160.525 92.966 160.525 93.329V103.048C160.525 103.411 160.719 103.746 161.033 103.929L169.451 108.79C169.765 108.972 170.153 108.972 170.468 108.79L178.888 103.929C179.202 103.746 179.396 103.411 179.396 103.048V78.821C179.396 78.453 179.196 78.113 178.875 77.933L173.864 75.138" fill="#404137"/>
<path d="M144.238 87.407C144.552 87.225 144.94 87.225 145.254 87.407L153.672 92.264C153.986 92.446 154.18 92.782 154.18 93.145V102.867C154.18 103.23 153.986 103.566 153.672 103.748L145.255 108.609C144.941 108.79 144.553 108.79 144.238 108.609L135.823 103.748C135.509 103.566 135.315 103.23 135.315 102.867V93.144C135.315 92.782 135.509 92.446 135.823 92.264L144.238 87.407" fill="#83CD29"/>
<path d="M128.93 93.064C128.93 92.698 128.738 92.362 128.422 92.181L120.007 87.338C119.863 87.254 119.704 87.211 119.543 87.205H119.456C119.296 87.211 119.136 87.254 118.992 87.338L110.576 92.181C110.263 92.362 110.067 92.698 110.067 93.064L110.085 106.104C110.085 106.286 110.18 106.455 110.339 106.543C110.495 106.637 110.688 106.637 110.844 106.543L115.844 103.679C116.16 103.491 116.353 103.16 116.353 102.797V96.705C116.353 96.341 116.545 96.006 116.86 95.824L118.99 94.598C119.148 94.505 119.322 94.461 119.498 94.461C119.672 94.461 119.85 94.505 120.005 94.598L122.133 95.824C122.448 96.006 122.642 96.341 122.642 96.705V102.797C122.642 103.16 122.837 103.493 123.151 103.679L128.151 106.543C128.308 106.637 128.504 106.637 128.659 106.543C128.814 106.454 128.911 106.285 128.911 106.104L128.93 93.064Z" fill="#404137"/>
</g>
<defs>
<filter id="filter0_d" x="3.05176e-05" y="0" width="307.349" height="298.28" filterUnits="userSpaceOnUse" color-interpolation-filters="sRGB">
<feFlood flood-opacity="0" result="BackgroundImageFix"/>
<feColorMatrix in="SourceAlpha" type="matrix" values="0 0 0 0 0 0 0 0 0 0 0 0 0 0 0 0 0 0 127 0"/>
<feOffset dx="2" dy="2"/>
<feGaussianBlur stdDeviation="1"/>
<feColorMatrix type="matrix" values="0 0 0 0 0 0 0 0 0 0 0 0 0 0 0 0 0 0 0.25 0"/>
<feBlend mode="normal" in2="BackgroundImageFix" result="effect1_dropShadow"/>
<feBlend mode="normal" in="SourceGraphic" in2="effect1_dropShadow" result="shape"/>
</filter>
</defs>
</svg>
