<svg width="308" height="299" viewBox="0 0 308 299" fill="none" xmlns="http://www.w3.org/2000/svg">
<g filter="url(#filter0_d)">
<path d="M239.681 98.095C268.626 93.8179 293.972 103.083 296.293 118.79C298.614 134.496 277.031 150.696 248.086 154.973C219.141 159.25 193.795 149.985 191.474 134.279C189.154 118.572 210.736 102.372 239.681 98.095Z" fill="#510909"/>
<ellipse cx="86.7399" cy="86.3257" rx="28.7479" ry="52.9783" transform="rotate(-45.6925 86.7399 86.3257)" fill="#510909"/>
<ellipse cx="236.706" cy="177.75" rx="28.7479" ry="52.9783" transform="rotate(-65.745 236.706 177.75)" fill="#510909"/>
<ellipse cx="128.426" cy="60.825" rx="28.7479" ry="52.9783" transform="rotate(-8.70269 128.426 60.825)" fill="#510909"/>
<ellipse cx="182.12" cy="59.5745" rx="28.7479" ry="52.9783" transform="rotate(19.7388 182.12 59.5745)" fill="#510909"/>
<path d="M62.6907 104.043C91.6842 107.977 113.458 123.919 111.324 139.652C109.189 155.385 83.955 164.951 54.9615 161.017C25.968 157.084 4.19433 141.141 6.32869 125.409C8.46306 109.676 33.6972 100.11 62.6907 104.043Z" fill="#510909"/>
<path d="M56.3554 159.348C82.4896 146.191 109.463 147.022 116.602 161.204C123.742 175.385 108.343 197.547 82.2087 210.703C56.0744 223.86 29.1009 223.029 21.9617 208.848C14.8225 194.666 30.2211 172.504 56.3554 159.348Z" fill="#510909"/>
<path d="M82.5079 215.288C96.0339 189.343 118.412 174.26 132.491 181.6C146.569 188.94 147.017 215.922 133.491 241.867C119.965 267.812 97.5872 282.895 83.5086 275.555C69.4299 268.215 68.9819 241.233 82.5079 215.288Z" fill="#510909"/>
<path d="M183.199 238.215C165.035 215.277 160.401 188.692 172.848 178.835C185.295 168.979 210.11 179.583 228.274 202.522C246.438 225.46 251.073 252.045 238.626 261.902C226.179 271.758 201.364 261.153 183.199 238.215Z" fill="#510909"/>
<path d="M128.629 239.295C126.087 210.147 136.849 185.399 152.666 184.02C168.483 182.641 183.366 205.152 185.908 234.301C188.449 263.449 177.688 288.197 161.871 289.576C146.054 290.955 131.171 268.444 128.629 239.295Z" fill="#510909"/>
<path d="M203.619 65.9367C224.896 45.8515 250.979 38.9285 261.878 50.4738C272.777 62.0191 264.364 87.6606 243.088 107.746C221.812 127.831 195.728 134.754 184.829 123.209C173.93 111.663 182.343 86.0219 203.619 65.9367Z" fill="#510909"/>
<ellipse cx="106.191" cy="65.2027" rx="28.7479" ry="52.9783" transform="rotate(-28.1426 106.191 65.2027)" fill="#780808"/>
<ellipse cx="157.086" cy="53.9575" rx="28.7479" ry="52.9783" transform="rotate(2.01747 157.086 53.9575)" fill="#780808"/>
<ellipse cx="203.491" cy="71.6728" rx="28.7479" ry="52.9783" transform="rotate(31.8177 203.491 71.6728)" fill="#780808"/>
<ellipse cx="235.784" cy="105.958" rx="28.7479" ry="52.9783" transform="rotate(62.4968 235.784 105.958)" fill="#780808"/>
<ellipse cx="246.953" cy="156.427" rx="28.7479" ry="52.9783" transform="rotate(97.8163 246.953 156.427)" fill="#780808"/>
<ellipse cx="131.649" cy="238.312" rx="28.7479" ry="52.9783" transform="rotate(6.69395 131.649 238.312)" fill="#780808"/>
<ellipse cx="66.0251" cy="105.618" rx="28.7479" ry="52.9783" transform="rotate(-61.4247 66.0251 105.618)" fill="#780808"/>
<ellipse cx="56.5562" cy="160.082" rx="28.7479" ry="52.9783" transform="rotate(-98.2529 56.5562 160.082)" fill="#780808"/>
<ellipse cx="82.1978" cy="214.072" rx="28.7479" ry="52.9783" transform="rotate(-135.761 82.1978 214.072)" fill="#780808"/>
<ellipse cx="181.544" cy="234.523" rx="28.7479" ry="52.9783" transform="rotate(-15.5678 181.544 234.523)" fill="#780808"/>
<ellipse cx="224.7" cy="203.528" rx="28.7479" ry="52.9783" transform="rotate(-52.9593 224.7 203.528)" fill="#780808"/>
<circle cx="156" cy="145" r="90" fill="#EBEBEB"/>
<path d="M178.988 152.075C179.62 146.813 179.431 146.041 183.35 146.893L184.345 146.981C187.359 147.118 191.302 146.496 193.617 145.42C198.603 143.107 201.559 139.243 196.643 140.258C185.428 142.571 184.657 138.775 184.657 138.775C196.5 121.204 201.451 98.9 197.178 93.44C185.524 78.548 165.35 85.59 165.012 85.773L164.904 85.794C162.688 85.333 160.209 85.059 157.423 85.014C152.348 84.931 148.497 86.345 145.576 88.56C145.576 88.56 109.587 73.733 111.261 107.206C111.617 114.327 121.468 161.088 133.217 146.964C137.511 141.8 141.661 137.433 141.661 137.433C143.722 138.802 146.189 139.5 148.777 139.249L148.977 139.079C148.915 139.72 148.942 140.347 149.058 141.089C146.031 144.472 146.921 145.066 140.869 146.311C134.747 147.573 138.344 149.819 140.691 150.406C143.539 151.119 150.124 152.128 154.575 145.897L154.398 146.608C155.586 147.558 155.505 153.435 155.673 157.634C155.841 161.833 156.123 165.751 156.979 168.063C157.835 170.373 158.845 176.324 166.798 174.62C173.444 173.194 178.525 171.144 178.988 152.075" fill="black"/>
<path d="M164.208 178.77C160.69 178.77 158.4 177.41 157.008 176.096C154.908 174.115 154.075 171.562 153.578 170.037L153.363 169.4C152.361 166.695 152.022 162.801 151.821 157.787C151.791 157.035 151.769 156.258 151.746 155.435C151.729 154.834 151.708 154.08 151.678 153.289C150.428 153.888 149.09 154.311 147.681 154.553C145.201 154.977 142.535 154.839 139.755 154.144C137.794 153.654 135.756 152.638 134.595 151.068C131.21 154.033 127.981 153.63 126.222 153.044C123.119 152.009 120.342 149.102 117.731 144.154C115.872 140.631 114.073 136.039 112.384 130.508C109.444 120.875 107.576 110.729 107.41 107.399C106.888 96.972 109.694 89.516 115.75 85.239C125.305 78.49 139.78 82.458 145.057 84.26C148.602 82.123 152.773 81.082 157.487 81.158C160.019 81.199 162.429 81.422 164.668 81.82C167.003 81.086 171.617 80.032 176.898 80.097C186.628 80.213 194.691 84.005 200.214 91.063C204.155 96.099 202.207 106.673 200.694 112.529C198.567 120.764 194.838 129.525 190.258 137.151C191.502 137.16 193.303 137.01 195.865 136.482C200.919 135.438 202.396 138.148 202.797 139.361C204.404 144.228 197.419 147.905 195.24 148.916C192.448 150.213 187.897 151.002 184.169 150.831L184.006 150.82L183.027 150.734L182.93 151.55L182.837 152.349C182.587 162.013 181.206 168.133 178.365 172.178C175.388 176.417 171.249 177.606 167.604 178.387C166.363 178.654 165.233 178.77 164.208 178.77V178.77ZM156.806 143.596C159.077 145.413 159.276 148.832 159.453 155.222C159.475 156.019 159.496 156.774 159.524 157.479C159.61 159.613 159.811 164.611 160.593 166.723C160.704 167.021 160.803 167.325 160.907 167.645C161.779 170.317 162.217 171.656 165.988 170.848C169.155 170.17 170.782 169.561 172.056 167.747C173.908 165.109 174.944 159.806 175.134 151.98L178.986 152.074L175.16 151.615L175.272 150.66C175.639 147.512 175.903 145.236 178.008 143.732C179.696 142.525 181.621 142.642 183.154 142.918C181.47 141.647 181.004 140.153 180.88 139.541L180.559 137.959L181.461 136.619C186.661 128.903 190.95 119.42 193.228 110.601C195.568 101.539 194.854 96.726 194.141 95.816C184.695 83.745 168.312 88.728 166.602 89.295L166.312 89.451L164.862 89.722L164.119 89.568C162.072 89.143 159.798 88.908 157.359 88.868C153.528 88.804 150.438 89.709 147.904 91.632L146.146 92.965L144.105 92.124C139.747 90.342 126.943 86.759 120.187 91.544C116.437 94.2 114.729 99.405 115.109 107.014C115.234 109.526 116.942 119.035 119.756 128.259C123.647 141.005 127.183 145.238 128.659 145.731C128.916 145.818 129.585 145.298 130.25 144.5C134.576 139.297 138.69 134.96 138.863 134.777L141.094 132.43L143.791 134.222C144.878 134.945 146.077 135.354 147.309 135.431L153.742 129.945L152.81 139.455C152.789 139.669 152.779 139.959 152.863 140.499L153.143 142.302L151.93 143.66L151.79 143.817L155.324 145.449L156.806 143.596V143.596Z" fill="black"/>
<path d="M196.646 140.258C185.43 142.571 184.659 138.774 184.659 138.774C196.501 121.203 201.451 98.898 197.179 93.439C185.524 78.547 165.35 85.59 165.013 85.773L164.904 85.792C162.688 85.333 160.209 85.059 157.422 85.014C152.347 84.931 148.497 86.344 145.576 88.559C145.576 88.559 109.586 73.733 111.26 107.206C111.616 114.327 121.467 161.088 133.216 146.964C137.51 141.8 141.659 137.433 141.659 137.433C143.72 138.802 146.187 139.5 148.774 139.249L148.975 139.079C148.913 139.72 148.941 140.347 149.055 141.089C146.029 144.472 146.917 145.066 140.867 146.311C134.744 147.573 138.341 149.819 140.69 150.406C143.537 151.119 150.123 152.128 154.573 145.897L154.395 146.608C155.581 147.558 156.414 152.787 156.274 157.527C156.134 162.267 156.041 165.521 156.976 168.063C157.911 170.604 158.842 176.324 166.796 174.62C173.442 173.195 176.886 169.504 177.366 163.348C177.706 158.971 178.475 159.618 178.524 155.704L179.142 153.851C179.853 147.917 179.255 146.003 183.35 146.894L184.345 146.981C187.359 147.119 191.303 146.496 193.618 145.42C198.604 143.106 201.561 139.243 196.646 140.258V140.258Z" fill="#336791"/>
<path d="M164.61 176.394C157.979 176.395 155.879 171.144 155.019 168.997C153.762 165.851 153.49 153.639 153.77 143.624C153.79 142.914 154.377 142.353 155.091 142.375C155.8 142.395 156.359 142.986 156.34 143.696C156.017 155.247 156.476 165.714 157.406 168.042C158.859 171.674 161.062 174.851 167.293 173.517C173.208 172.248 175.423 170.005 176.409 164.287C177.167 159.898 178.663 147.413 178.847 144.949C178.9 144.241 179.514 143.709 180.224 143.763C180.932 143.816 181.463 144.433 181.41 145.14C181.218 147.704 179.728 160.166 178.941 164.724C177.776 171.479 174.765 174.543 167.831 176.03C166.654 176.281 165.583 176.394 164.61 176.394V176.394ZM128.659 150.749C128.026 150.75 127.452 150.634 126.955 150.468C122.648 149.031 118.546 142.017 114.762 129.619C111.882 120.181 110.057 110.331 109.897 107.13C109.422 97.64 111.867 90.925 117.162 87.173C127.638 79.75 145.262 86.819 146.007 87.123C146.664 87.392 146.979 88.142 146.71 88.799C146.442 89.455 145.691 89.771 145.035 89.502V89.503C144.865 89.433 127.965 82.663 118.643 89.274C114.115 92.485 112.036 98.449 112.463 107.003C112.598 109.699 114.303 119.314 117.22 128.87C120.598 139.937 124.443 146.922 127.768 148.03C128.289 148.205 129.877 148.734 132.149 146.004C136.421 140.864 140.346 136.762 140.385 136.721C140.876 136.208 141.69 136.192 142.202 136.682C142.714 137.173 142.732 137.987 142.241 138.499C142.202 138.539 138.337 142.58 134.125 147.647C132.13 150.045 130.217 150.749 128.659 150.749V150.749ZM184.579 139.92C184.332 139.92 184.082 139.849 183.862 139.7C183.273 139.304 183.117 138.505 183.514 137.916C195.485 120.152 199.687 98.689 196.088 94.091C191.558 88.303 185.161 85.279 177.076 85.106C171.089 84.976 166.33 86.505 165.553 86.772L165.358 86.851C164.576 87.097 163.976 86.668 163.75 86.167C163.482 85.574 163.702 84.873 164.258 84.536L164.604 84.394L164.587 84.399L164.605 84.393C165.926 83.91 170.757 82.46 176.742 82.529C185.689 82.623 193.079 86.074 198.113 92.506C200.495 95.55 200.5 102.563 198.128 111.746C195.71 121.108 191.16 131.171 185.646 139.353C185.398 139.722 184.992 139.92 184.579 139.92V139.92ZM185.19 148.143C183.146 148.143 181.314 147.856 180.217 147.198C179.089 146.523 178.874 145.604 178.846 145.117C178.538 139.713 181.52 138.772 183.041 138.343C182.829 138.023 182.527 137.646 182.216 137.257C181.329 136.149 180.115 134.631 179.179 132.361C179.033 132.007 178.573 131.182 178.041 130.228C175.158 125.059 169.16 114.302 173.013 108.793C174.797 106.244 178.347 105.241 183.579 105.801C182.04 101.112 174.71 86.443 157.32 86.158C152.089 86.07 147.799 87.679 144.576 90.933C137.359 98.222 137.621 111.41 137.624 111.541C137.643 112.251 137.082 112.841 136.373 112.859C135.663 112.881 135.073 112.318 135.055 111.608C135.039 111.023 134.769 97.184 142.75 89.124C146.485 85.352 151.401 83.49 157.362 83.587C168.49 83.77 175.651 89.426 179.7 94.14C184.112 99.276 186.276 104.942 186.454 106.832C186.587 108.238 185.578 108.52 185.374 108.561L184.911 108.572C179.776 107.75 176.482 108.32 175.12 110.267C172.189 114.455 177.863 124.63 180.286 128.976C180.905 130.084 181.351 130.885 181.555 131.38C182.351 133.31 183.389 134.607 184.223 135.649C184.956 136.566 185.592 137.36 185.82 138.294C185.925 138.479 187.423 140.693 196.308 138.859C198.535 138.4 199.87 138.793 200.278 140.027C201.081 142.456 196.576 145.288 194.082 146.447C191.844 147.486 188.277 148.143 185.19 148.143V148.143ZM181.409 144.905C181.69 145.19 183.1 145.68 186.021 145.555C188.617 145.443 191.356 144.878 193 144.116C195.102 143.14 196.504 142.049 197.231 141.304L196.827 141.378C191.146 142.551 187.128 142.395 184.885 140.913C184.724 140.808 184.581 140.698 184.45 140.59C184.207 140.686 183.982 140.749 183.822 140.794C182.549 141.151 181.233 141.52 181.409 144.905V144.905ZM144.712 152.084C143.301 152.084 141.816 151.893 140.299 151.512C138.728 151.119 136.078 149.936 136.119 147.993C136.164 145.812 139.335 145.158 140.53 144.912C144.842 144.024 145.123 143.668 146.471 141.957C146.864 141.458 147.353 140.837 148.019 140.092C149.009 138.985 150.091 138.423 151.235 138.423C152.031 138.423 152.685 138.694 153.116 138.872C154.492 139.442 155.64 140.82 156.112 142.47C156.538 143.958 156.335 145.39 155.54 146.502C152.932 150.155 149.188 152.084 144.712 152.084V152.084ZM138.895 148.104C139.283 148.403 140.059 148.803 140.922 149.02C142.236 149.348 143.51 149.515 144.712 149.515C148.374 149.515 151.313 147.998 153.449 145.009C153.894 144.385 153.761 143.594 153.642 143.177C153.392 142.305 152.772 141.512 152.133 141.246C151.786 141.102 151.499 140.992 151.235 140.992C151.093 140.992 150.662 140.992 149.935 141.805C149.321 142.491 148.88 143.051 148.489 143.546C146.811 145.677 146.042 146.4 141.048 147.429C139.83 147.681 139.205 147.935 138.895 148.104ZM148.777 142.176C148.153 142.176 147.606 141.721 147.508 141.086C147.475 140.873 147.454 140.658 147.444 140.442C144.17 140.38 141.012 138.976 138.615 136.474C135.584 133.311 134.204 128.929 134.83 124.452C135.51 119.59 135.256 115.298 135.119 112.992C135.081 112.351 135.054 111.888 135.056 111.567C135.058 111.161 135.066 110.082 138.671 108.255C139.953 107.605 142.524 106.471 145.332 106.18C149.986 105.7 153.053 107.772 153.971 112.016C156.449 123.476 154.167 128.545 152.501 132.246C152.19 132.934 151.897 133.586 151.663 134.216L151.456 134.773C150.576 137.133 149.815 139.172 150.049 140.696C150.156 141.398 149.675 142.053 148.974 142.162L148.777 142.176V142.176ZM137.634 111.922L137.685 112.84C137.827 115.235 138.091 119.693 137.375 124.809C136.859 128.501 137.987 132.106 140.47 134.697C142.432 136.745 145.016 137.875 147.671 137.875H147.726C148.024 136.622 148.517 135.3 149.048 133.875L149.254 133.322C149.519 132.61 149.829 131.921 150.157 131.192C151.761 127.628 153.757 123.192 151.458 112.559C151.002 110.454 149.898 109.235 148.083 108.833C144.355 108.009 138.8 110.813 137.634 111.922V111.922ZM145.39 111.377C145.326 111.831 146.223 113.044 147.391 113.206C148.558 113.369 149.557 112.421 149.62 111.967C149.683 111.512 148.787 111.012 147.618 110.849C146.451 110.686 145.452 110.922 145.39 111.377V111.377ZM147.66 113.654L147.332 113.631C146.607 113.53 145.874 113.073 145.373 112.408C145.197 112.175 144.909 111.721 144.966 111.317C145.048 110.724 145.77 110.37 146.899 110.37C147.152 110.37 147.414 110.389 147.679 110.425C148.295 110.511 148.868 110.689 149.291 110.925C150.024 111.335 150.078 111.791 150.045 112.028C149.954 112.681 148.912 113.654 147.66 113.654V113.654ZM145.816 111.453C145.853 111.733 146.546 112.658 147.45 112.783L147.659 112.798C148.493 112.798 149.117 112.141 149.19 111.926C149.113 111.78 148.577 111.415 147.559 111.275C147.334 111.243 147.111 111.227 146.898 111.227C146.246 111.226 145.897 111.373 145.816 111.453V111.453ZM180.937 110.45C181 110.905 180.105 112.118 178.936 112.28C177.768 112.442 176.769 111.495 176.705 111.04C176.643 110.586 177.539 110.085 178.707 109.923C179.875 109.759 180.873 109.997 180.937 110.45ZM178.667 112.512C177.542 112.512 176.573 111.637 176.493 111.07C176.401 110.389 177.522 109.871 178.678 109.711C178.932 109.675 179.184 109.657 179.427 109.657C180.424 109.657 181.084 109.95 181.15 110.421C181.193 110.727 180.959 111.198 180.555 111.622C180.289 111.902 179.729 112.387 178.967 112.492L178.667 112.512ZM179.426 110.085C179.203 110.085 178.971 110.102 178.736 110.134C177.574 110.295 176.883 110.762 176.916 111.012C176.955 111.286 177.696 112.084 178.666 112.084L178.905 112.067C179.539 111.978 180.015 111.565 180.242 111.326C180.598 110.951 180.74 110.599 180.723 110.478C180.702 110.321 180.274 110.085 179.426 110.085V110.085ZM182.62 136.538C182.374 136.538 182.126 136.468 181.906 136.321C181.316 135.925 181.158 135.128 181.553 134.538C184.289 130.451 183.788 126.282 183.304 122.252C183.097 120.534 182.884 118.759 182.94 117.054C182.996 115.301 183.218 113.855 183.434 112.455C183.689 110.798 183.93 109.231 183.83 107.373C183.791 106.665 184.335 106.06 185.044 106.02C185.755 105.982 186.358 106.526 186.397 107.235C186.511 109.359 186.238 111.131 185.974 112.846C185.77 114.169 185.559 115.537 185.508 117.136C185.459 118.645 185.652 120.248 185.856 121.944C186.372 126.231 186.955 131.09 183.689 135.967C183.441 136.337 183.034 136.538 182.62 136.538Z" fill="white"/>
<path d="M95.835 179.184C96.928 179.002 98.357 178.846 100.178 178.846C102.413 178.846 104.052 179.366 105.092 180.302C106.054 181.134 106.626 182.408 106.626 183.969C106.626 185.555 106.157 186.803 105.273 187.713C104.077 188.987 102.127 189.637 99.917 189.637C99.241 189.637 98.617 189.611 98.098 189.481V196.502H95.835V179.184V179.184ZM98.098 187.634C98.592 187.764 99.216 187.816 99.97 187.816C102.699 187.816 104.364 186.49 104.364 184.072C104.364 181.758 102.726 180.64 100.23 180.64C99.242 180.64 98.488 180.718 98.098 180.822V187.634V187.634ZM120.328 190.104C120.328 194.758 117.103 196.787 114.061 196.787C110.655 196.787 108.029 194.291 108.029 190.312C108.029 186.1 110.785 183.63 114.269 183.63C117.884 183.629 120.328 186.256 120.328 190.104V190.104ZM110.344 190.234C110.344 192.99 111.93 195.07 114.166 195.07C116.35 195.07 117.987 193.016 117.987 190.182C117.987 188.05 116.922 185.346 114.217 185.346C111.512 185.346 110.344 187.842 110.344 190.234ZM122.901 194.16C123.577 194.602 124.773 195.07 125.917 195.07C127.581 195.07 128.361 194.238 128.361 193.198C128.361 192.106 127.712 191.508 126.021 190.884C123.759 190.078 122.693 188.83 122.693 187.322C122.693 185.294 124.331 183.63 127.035 183.63C128.309 183.63 129.428 183.994 130.13 184.41L129.558 186.074C129.064 185.762 128.154 185.346 126.984 185.346C125.632 185.346 124.878 186.126 124.878 187.062C124.878 188.102 125.633 188.57 127.271 189.194C129.455 190.026 130.573 191.118 130.573 192.99C130.573 195.2 128.857 196.76 125.867 196.76C124.489 196.76 123.215 196.422 122.331 195.902L122.901 194.16V194.16ZM136.266 180.301V183.915H139.541V185.657H136.266V192.443C136.266 194.003 136.707 194.887 137.982 194.887C138.58 194.887 139.022 194.809 139.308 194.731L139.412 196.447C138.971 196.629 138.268 196.759 137.385 196.759C136.319 196.759 135.46 196.421 134.914 195.797C134.265 195.121 134.03 194.003 134.03 192.521V185.657H132.08V183.915H134.03V180.899L136.266 180.301V180.301ZM152.802 183.916C152.749 184.826 152.698 185.84 152.698 187.374V194.68C152.698 197.566 152.126 199.334 150.904 200.427C149.682 201.571 147.914 201.935 146.328 201.935C144.82 201.935 143.156 201.571 142.141 200.895L142.713 199.153C143.545 199.673 144.845 200.141 146.405 200.141C148.745 200.141 150.461 198.919 150.461 195.747V194.343H150.409C149.707 195.513 148.355 196.449 146.405 196.449C143.285 196.449 141.049 193.797 141.049 190.312C141.049 186.048 143.831 183.63 146.717 183.63C148.902 183.63 150.098 184.774 150.644 185.814H150.696L150.8 183.916H152.802V183.916ZM150.436 188.882C150.436 188.492 150.41 188.154 150.306 187.842C149.89 186.516 148.772 185.424 147.108 185.424C144.923 185.424 143.364 187.27 143.364 190.182C143.364 192.652 144.612 194.706 147.082 194.706C148.486 194.706 149.76 193.822 150.254 192.366C150.384 191.976 150.437 191.534 150.437 191.144V188.882H150.436ZM156.337 187.842C156.337 186.36 156.311 185.086 156.233 183.916H158.236L158.313 186.386H158.417C158.989 184.696 160.367 183.63 161.901 183.63C162.161 183.63 162.342 183.656 162.55 183.708V185.866C162.317 185.814 162.082 185.788 161.771 185.788C160.159 185.788 159.014 187.01 158.703 188.726C158.651 189.038 158.599 189.402 158.599 189.792V196.5H156.337V187.842ZM165.854 190.624C165.906 193.718 167.881 194.992 170.169 194.992C171.808 194.992 172.795 194.706 173.653 194.342L174.043 195.98C173.237 196.344 171.859 196.76 169.857 196.76C165.983 196.76 163.669 194.212 163.669 190.416C163.669 186.62 165.905 183.629 169.571 183.629C173.679 183.629 174.771 187.243 174.771 189.557C174.771 190.025 174.719 190.389 174.693 190.623H165.854V190.624ZM172.562 188.986C172.587 187.53 171.963 185.268 169.39 185.268C167.076 185.268 166.062 187.4 165.879 188.986H172.562V188.986Z" fill="black"/>
<path d="M177.371 193.744C178.385 194.368 179.867 194.888 181.427 194.888C183.741 194.888 185.093 193.666 185.093 191.898C185.093 190.26 184.157 189.324 181.791 188.414C178.931 187.4 177.163 185.918 177.163 183.448C177.163 180.718 179.425 178.69 182.831 178.69C184.625 178.69 185.925 179.106 186.705 179.548L186.081 181.394C185.509 181.082 184.339 180.562 182.753 180.562C180.361 180.562 179.451 181.992 179.451 183.188C179.451 184.826 180.516 185.632 182.935 186.568C185.899 187.713 187.407 189.142 187.407 191.716C187.407 194.42 185.405 196.76 181.271 196.76C179.581 196.76 177.735 196.266 176.798 195.642L177.371 193.744V193.744ZM204.957 199.074C202.591 198.45 200.277 197.748 198.249 197.046C197.885 196.916 197.521 196.786 197.183 196.786C193.023 196.63 189.461 193.562 189.461 187.92C189.461 182.304 192.893 178.69 197.625 178.69C202.383 178.69 205.478 182.382 205.478 187.556C205.478 192.054 203.398 194.94 200.486 195.954V196.058C202.228 196.5 204.126 196.916 205.608 197.176L204.957 199.074V199.074ZM203.085 187.66C203.085 184.15 201.266 180.535 197.547 180.535C193.725 180.535 191.853 184.071 191.879 187.868C191.853 191.586 193.907 194.94 197.443 194.94C201.058 194.94 203.085 191.664 203.085 187.66V187.66ZM208.414 178.976H210.677V194.602H218.165V196.5H208.414V178.976Z" fill="#336791"/>
</g>
<defs>
<filter id="filter0_d" x="0" y="0" width="307.349" height="298.28" filterUnits="userSpaceOnUse" color-interpolation-filters="sRGB">
<feFlood flood-opacity="0" result="BackgroundImageFix"/>
<feColorMatrix in="SourceAlpha" type="matrix" values="0 0 0 0 0 0 0 0 0 0 0 0 0 0 0 0 0 0 127 0"/>
<feOffset dx="2" dy="2"/>
<feGaussianBlur stdDeviation="1"/>
<feColorMatrix type="matrix" values="0 0 0 0 0 0 0 0 0 0 0 0 0 0 0 0 0 0 0.25 0"/>
<feBlend mode="normal" in2="BackgroundImageFix" result="effect1_dropShadow"/>
<feBlend mode="normal" in="SourceGraphic" in2="effect1_dropShadow" result="shape"/>
</filter>
</defs>
</svg>
