<svg width="304" height="509" viewBox="0 0 304 509" fill="none" xmlns="http://www.w3.org/2000/svg">
<path d="M136.287 339.904C124.224 341.269 118.656 345.824 92.0476 341.351C69.1986 334.998 58.2781 319.885 32.6131 316.688C35.469 307.856 79.4266 301.942 102.39 309.368C125.353 316.793 139.143 331.072 136.287 339.904Z" fill="#4B8506"/>
<path d="M145.043 413.152C157.054 413.266 162.999 417.181 188.729 410.066C210.568 401.484 219.775 385.497 244.707 379.734C240.996 371.333 197.132 369.995 175.29 379.644C153.447 389.293 141.332 404.751 145.043 413.152Z" fill="#4B8506"/>
<path d="M135.722 506.433C135.722 506.433 150.158 463.204 150.667 444.07C151.331 419.12 145.33 413.894 134.762 366.403C129.512 342.814 137.031 301.342 149.548 280.922" stroke="#4B8506" stroke-width="10"/>
<path d="M239.681 98.095C268.626 93.8179 293.972 103.083 296.293 118.79C298.614 134.496 277.031 150.696 248.086 154.973C219.141 159.25 193.795 149.985 191.474 134.279C189.154 118.572 210.736 102.372 239.681 98.095Z" fill="#510909"/>
<ellipse cx="86.7399" cy="86.3257" rx="28.7479" ry="52.9783" transform="rotate(-45.6925 86.7399 86.3257)" fill="#510909"/>
<ellipse cx="236.706" cy="177.75" rx="28.7479" ry="52.9783" transform="rotate(-65.745 236.706 177.75)" fill="#510909"/>
<ellipse cx="128.426" cy="60.825" rx="28.7479" ry="52.9783" transform="rotate(-8.70269 128.426 60.825)" fill="#510909"/>
<ellipse cx="182.12" cy="59.5745" rx="28.7479" ry="52.9783" transform="rotate(19.7388 182.12 59.5745)" fill="#510909"/>
<path d="M62.6907 104.043C91.6842 107.977 113.458 123.919 111.323 139.652C109.189 155.385 83.955 164.951 54.9615 161.017C25.968 157.084 4.19432 141.141 6.32868 125.409C8.46304 109.676 33.6972 100.11 62.6907 104.043Z" fill="#510909"/>
<path d="M56.3553 159.348C82.4896 146.191 109.463 147.022 116.602 161.204C123.742 175.385 108.343 197.547 82.2087 210.703C56.0744 223.86 29.1009 223.029 21.9617 208.848C14.8225 194.666 30.2211 172.504 56.3553 159.348Z" fill="#510909"/>
<path d="M82.5079 215.288C96.0339 189.343 118.412 174.26 132.491 181.6C146.569 188.94 147.017 215.922 133.491 241.867C119.965 267.812 97.5872 282.895 83.5085 275.555C69.4299 268.215 68.9819 241.233 82.5079 215.288Z" fill="#510909"/>
<path d="M183.199 238.215C165.035 215.277 160.401 188.692 172.848 178.835C185.295 168.979 210.11 179.583 228.274 202.522C246.438 225.46 251.073 252.045 238.626 261.902C226.179 271.758 201.364 261.153 183.199 238.215Z" fill="#510909"/>
<path d="M128.629 239.295C126.087 210.147 136.849 185.399 152.666 184.02C168.483 182.641 183.366 205.152 185.908 234.301C188.449 263.449 177.688 288.197 161.871 289.576C146.054 290.955 131.171 268.444 128.629 239.295Z" fill="#510909"/>
<path d="M203.619 65.9367C224.895 45.8515 250.979 38.9285 261.878 50.4738C272.777 62.0191 264.364 87.6606 243.088 107.746C221.812 127.831 195.728 134.754 184.829 123.209C173.93 111.663 182.343 86.0219 203.619 65.9367Z" fill="#510909"/>
<ellipse cx="106.19" cy="65.2027" rx="28.7479" ry="52.9783" transform="rotate(-28.1426 106.19 65.2027)" fill="#780808"/>
<ellipse cx="157.086" cy="53.9575" rx="28.7479" ry="52.9783" transform="rotate(2.01747 157.086 53.9575)" fill="#780808"/>
<ellipse cx="203.491" cy="71.6728" rx="28.7479" ry="52.9783" transform="rotate(31.8177 203.491 71.6728)" fill="#780808"/>
<ellipse cx="235.784" cy="105.958" rx="28.7479" ry="52.9783" transform="rotate(62.4968 235.784 105.958)" fill="#780808"/>
<ellipse cx="246.953" cy="156.427" rx="28.7479" ry="52.9783" transform="rotate(97.8163 246.953 156.427)" fill="#780808"/>
<ellipse cx="131.649" cy="238.312" rx="28.7479" ry="52.9783" transform="rotate(6.69395 131.649 238.312)" fill="#780808"/>
<ellipse cx="66.0251" cy="105.618" rx="28.7479" ry="52.9783" transform="rotate(-61.4247 66.0251 105.618)" fill="#780808"/>
<ellipse cx="56.5562" cy="160.082" rx="28.7479" ry="52.9783" transform="rotate(-98.2529 56.5562 160.082)" fill="#780808"/>
<ellipse cx="82.1978" cy="214.072" rx="28.7479" ry="52.9783" transform="rotate(-135.761 82.1978 214.072)" fill="#780808"/>
<ellipse cx="181.544" cy="234.523" rx="28.7479" ry="52.9783" transform="rotate(-15.5678 181.544 234.523)" fill="#780808"/>
<ellipse cx="224.7" cy="203.528" rx="28.7479" ry="52.9783" transform="rotate(-52.9593 224.7 203.528)" fill="#780808"/>
<circle cx="156" cy="145" r="90" fill="#EBEBEB"/>
<path d="M181.234 85.856H173.85L181.529 94.189V98.156H165.713V93.511H173.391L165.713 85.178V81.207H181.234V85.856V85.856ZM162.577 85.856H155.193L162.872 94.189V98.156H147.055V93.511H154.734L147.055 85.178V81.207H162.577V85.856V85.856ZM144.103 86.046H136.135V93.317H144.103V98.156H130.471V81.207H144.103V86.046V86.046Z" fill="#131313"/>
<path d="M119.613 196.706L111.516 105.893H200.483L192.379 196.691L155.945 206.793L119.613 196.706V196.706Z" fill="#1572B6"/>
<path d="M156.001 199.072L185.44 190.91L192.366 113.319H156.001V199.072Z" fill="#33A9DC"/>
<path d="M156 146.22H170.738L171.757 134.815H156V123.677H183.929L183.662 126.665L180.925 157.357H156V146.22V146.22Z" fill="white"/>
<path d="M156.067 175.146L156.018 175.16L143.614 171.81L142.82 162.927H131.641L133.202 180.415L156.016 186.748L156.068 186.733V175.146H156.067Z" fill="#EBEBEB"/>
<path d="M169.792 156.886L168.45 171.802L156.028 175.155V186.743L178.861 180.415L179.029 178.533L180.967 156.886H169.792V156.886Z" fill="white"/>
<path d="M156.039 123.677V134.814H129.136L128.912 132.311L128.405 126.665L128.138 123.677H156.039ZM156 146.221V157.359H143.753L143.53 154.856L143.022 149.209L142.755 146.221H156V146.221Z" fill="#EBEBEB"/>
</svg>
