<svg width="1451" height="152" viewBox="0 0 1451 152" fill="none" xmlns="http://www.w3.org/2000/svg">
<g filter="url(#filter0_d)">
<path d="M375 65.2706C375 74.2258 372.047 79.6838 363.211 79.6838C354.374 79.6838 343 84.5432 343 75.588C363.211 55.0492 359.42 64.5407 369.947 43.5187C375 33.4294 375 56.3153 375 65.2706Z" fill="#4B8506"/>
<path d="M360 55.2706C360 64.2258 357.139 69.6838 348.579 69.6838C340.019 69.6838 329 74.5432 329 65.588C348.579 45.0492 344.907 54.5407 355.105 33.5187C360 23.4294 360 46.3153 360 55.2706Z" fill="#4B8506"/>
<path d="M295 59.4281C295 67.1378 299.446 72.5735 308.182 72.5735C316.918 72.5735 324 80.2832 324 72.5735C324 64.8637 319.606 53.9439 308.182 34.5C298.515 25.0274 313.455 44.4713 295 59.4281Z" fill="#4B8506"/>
<path d="M309.386 61.3562C296.614 74.9424 315.103 84 322.157 84C329.21 84 334.076 71.9232 334.928 61.3562C335.779 50.7891 328.968 45.7571 322.157 38.7123C315.345 31.6676 322.157 47.7699 309.386 61.3562Z" fill="#4B8506"/>
<path d="M257.386 66.8379C244.614 80.1351 263.103 89 270.157 89C277.21 89 282.076 77.1802 282.928 66.8379C283.779 56.4957 276.968 51.5708 270.157 44.6759C263.345 37.781 270.157 53.5407 257.386 66.8379Z" fill="#4B8506"/>
<path d="M279 59.6145C279 72.0121 281.922 79.5681 290.667 79.5681C299.411 79.5681 314 82.9866 314 70.589C294 42.1551 302.333 61.6098 290.667 32.6771C286.241 21.7026 279 47.2169 279 59.6145Z" fill="#4B8506"/>
<path d="M327 68.0374C327 75.7897 335.08 74.5545 343.946 74.5545C352.812 74.5545 360 82.3069 360 74.5545C360 66.8022 356.432 61.019 343.946 42.4703C334.135 32.9453 345.73 52.9979 327 68.0374Z" fill="#4B8506"/>
<path d="M238 63.8864C238 72.0161 245.656 72.3868 252.539 72.3868C259.421 72.3868 265 80.5165 265 72.3868C265 64.2571 262.231 58.1924 252.539 38.7407C244.923 28.7521 252.539 48.1149 238 63.8864Z" fill="#4B8506"/>
<rect width="137" height="29" transform="matrix(-1 -9.17939e-09 1.16195e-08 1 375 64)" fill="#4B8506"/>
</g>
<g filter="url(#filter1_d)">
<path d="M41 73.9399C41 83.3243 36.593 81.8291 31.7568 81.8291C26.9205 81.8291 23 91.2135 23 81.8291C23 72.4447 24.9459 65.444 31.7568 42.9902C37.1081 31.46 30.7838 55.7343 41 73.9399Z" fill="#4B8506"/>
<path d="M30.5149 67.5383C37.7518 84.0153 27.2748 95 23.2779 95C19.2811 95 16.5234 80.3537 16.041 67.5383C15.5585 54.7229 19.4182 48.6203 23.2779 40.0767C27.1376 31.533 23.2779 51.0614 30.5149 67.5383Z" fill="#4B8506"/>
<path d="M61.3687 75.0565C69.0314 91.8226 57.938 103 53.706 103C49.4741 103 46.5542 88.0968 46.0434 75.0565C45.5325 62.0163 49.6193 55.8066 53.706 47.1131C57.7928 38.4196 53.706 58.2905 61.3687 75.0565Z" fill="#4B8506"/>
<path d="M48 66.3142C48 81.9352 46.2467 91.4558 41 91.4558C35.7533 91.4558 27 95.7631 27 80.1421C39 44.3154 34 68.8283 41 32.3732C43.6552 18.5453 48 50.6933 48 66.3142Z" fill="#4B8506"/>
<path d="M82 57.0271C82 72.2522 80.2189 81.5316 74.8889 81.5316C69.5589 81.5316 62 85.509 62 70.2838C66.5465 81.3108 77.111 66.404 77.1111 32.7058C77.1112 15.319 82 41.8019 82 57.0271Z" fill="#4B8506"/>
<path d="M20 76.2022C20 85.3826 15.593 83.9198 10.7568 83.9198C5.92053 83.9198 2 93.1002 2 83.9198C2 74.7394 3.94595 67.891 10.7568 45.9253C16.1081 34.6457 9.78378 58.3923 20 76.2022Z" fill="#4B8506"/>
<path d="M74 94.9522C74 106.31 68.3288 94.9523 63.2307 94.9523C58.1327 94.9523 54 106.31 54 94.9523C54 83.5948 56.0513 75.1223 63.2307 47.9477C68.8718 33.9932 63.2307 72.9188 74 94.9522Z" fill="#4B8506"/>
</g>
<g filter="url(#filter2_d)">
<path d="M124 56.0909C124 65.7178 121.97 71.5851 115.895 71.5851C109.82 71.5851 102 76.809 102 67.1821C115.895 45.1029 113.289 55.3064 120.526 32.7076C124 21.8617 124 46.4641 124 56.0909Z" fill="#4B8506"/>
<path d="M202 69.2509C202 77.6153 196.124 76.2825 189.676 76.2825C183.227 76.2825 178 84.6469 178 76.2825C178 67.9182 180.595 61.6785 189.676 41.6653C196.811 31.3884 188.378 53.0241 202 69.2509Z" fill="#4B8506"/>
<path d="M187.638 64.9109C197.429 79.3644 183.254 89.0001 177.847 89.0001C172.439 89.0001 168.708 76.1525 168.056 64.9109C167.403 53.6693 172.625 48.3161 177.847 40.8217C183.069 33.3273 177.847 50.4574 187.638 64.9109Z" fill="#4B8506"/>
<path d="M224.784 70.9109C234.15 85.3644 220.591 95.0001 215.419 95.0001C210.246 95.0001 206.677 82.1525 206.053 70.9109C205.429 59.6694 210.424 54.3162 215.419 46.8217C220.413 39.3273 215.419 56.4574 224.784 70.9109Z" fill="#4B8506"/>
<path d="M210 62.9837C210 76.3731 207.829 84.5336 201.333 84.5336C194.838 84.5336 184 88.2256 184 74.8362C198.857 44.1276 192.667 65.1387 201.333 33.8914C204.621 22.0389 210 49.5943 210 62.9837Z" fill="#4B8506"/>
<path d="M174 79.6293C174 90.0337 168.614 88.3759 162.703 88.3759C156.792 88.3759 152 98.7804 152 88.3759C152 77.9715 154.378 70.2099 162.703 45.3155C169.243 32.532 161.514 59.4447 174 79.6293Z" fill="#4B8506"/>
<path d="M245 76.0001C245 87.5641 240.798 87.8605 234.425 87.8605C228.053 87.8605 222.887 99.4244 222.887 87.8605C222.887 76.2965 223.526 70.1688 232.5 42.5001C237.203 28.0001 231.539 53.5661 245 76.0001Z" fill="#4B8506"/>
</g>
<g filter="url(#filter3_d)">
<path d="M125.07 57.3562C116.13 70.9424 129.072 80 134.01 80C138.947 80 142.353 67.9232 142.949 57.3562C143.545 46.7891 138.778 41.7571 134.01 34.7123C129.242 27.6676 134.01 43.7699 125.07 57.3562Z" fill="#4B8506"/>
<path d="M90.0699 62.8379C81.1302 76.1351 94.0724 85 99.0097 85C103.947 85 107.353 73.1802 107.949 62.8379C108.545 52.4957 103.778 47.5708 99.0097 40.6759C94.2418 33.781 99.0097 49.5407 90.0699 62.8379Z" fill="#4B8506"/>
<path d="M105 55.6145C105 68.012 107.004 75.5681 113 75.5681C118.996 75.5681 129 78.9865 129 66.589C115.286 38.1551 121 57.6098 113 28.6771C109.966 17.7026 105 43.2169 105 55.6145Z" fill="#4B8506"/>
<path d="M137 64.0374C137 71.7897 142.386 70.5545 148.297 70.5545C154.208 70.5545 159 78.3068 159 70.5545C159 62.8022 156.622 57.019 148.297 38.4703C141.757 28.9453 149.487 48.9979 137 64.0374Z" fill="#4B8506"/>
<path d="M72.0001 67.5124C72.0001 75.3594 78.522 67.5125 84.3847 67.5125C90.2474 67.5125 95.0001 75.3594 95.0001 67.5125C95.0001 59.6655 92.6411 53.8117 84.3847 35.0365C77.8975 25.3953 84.3847 52.2893 72.0001 67.5124Z" fill="#4B8506"/>
</g>
<g filter="url(#filter4_d)">
<path d="M73.9692 66.3333L159 65V85L64.0001 81.875L73.9692 66.3333Z" fill="#4B8506"/>
</g>
<path d="M129 90.082C129 100.003 131.584 106.542 139.316 106.542C147.048 106.542 157 111.925 157 102.004C153.889 80.6544 142.101 90.0957 132.889 66.8061C128.468 55.6285 130.647 80.8338 129 90.082Z" fill="#3E680C"/>
<path d="M143 79.9111C143 90.2096 145.768 96.4863 154.053 96.4863C162.337 96.4863 173 102.075 173 91.7761C154.053 68.1565 157.607 79.0718 147.737 54.8964C143 43.2938 143 69.6126 143 79.9111Z" fill="#3E680C"/>
<path d="M208 93.4642C208 102.441 200.41 101.01 192.081 101.01C183.752 101.01 177 109.987 177 101.01C177 92.034 180.351 85.3377 192.081 63.8602C201.297 52.8313 190.405 76.0501 208 93.4642Z" fill="#3E680C"/>
<path d="M188.185 90.4552C200.572 106.204 185.942 114 179.101 114C172.26 114 163.411 100.215 166.714 87.7528C170.017 75.2903 174.146 65.9578 174.146 56.0423C174.146 46.1267 175.798 74.707 188.185 90.4552Z" fill="#3E680C"/>
<path d="M238.49 93.9241C250.442 109.57 235.597 120 228.996 120C222.395 120 217.841 106.093 217.044 93.9241C216.247 81.7555 226.538 76.0944 232.912 67.9819C239.286 59.8694 226.538 78.2786 238.49 93.9241Z" fill="#3E680C"/>
<path d="M219 85.9161C219 100.55 216.976 93.9438 208.5 93.9438C200.025 93.9438 198 102.776 198 90.4108C198 83.7178 201.231 91.5884 212.539 57.4365C216.828 44.4824 219 71.2821 219 85.9161Z" fill="#3E680C"/>
<path d="M174 95.4643C174 104.441 166.41 103.01 158.081 103.01C149.752 103.01 143 111.987 143 103.01C143 94.0341 146.351 87.3378 158.081 65.8603C167.297 54.8314 156.405 78.0502 174 95.4643Z" fill="#3E680C"/>
<path d="M259 90.0694C259 99.4185 251.911 99.8448 245.539 99.8448C239.166 99.8448 234 109.194 234 99.8448C234 90.4956 236.564 83.5213 245.539 61.1518C252.59 49.6649 245.539 71.9321 259 90.0694Z" fill="#3E680C"/>
<rect x="129" y="90" width="130" height="34" fill="#3E680C"/>
<path d="M133 85.5254C133 94.0937 130.416 99.7406 122.684 99.7406C114.952 99.7406 105 104.39 105 95.8218C108.111 77.3834 119.899 85.5372 129.111 65.4234C133.532 55.7701 131.353 77.5383 133 85.5254Z" fill="#3E680C"/>
<path d="M118 77.2706C118 86.2258 115.232 91.6838 106.947 91.6838C98.6631 91.6838 88 96.5432 88 87.588C106.947 67.0492 103.393 76.5407 113.263 55.5187C118 45.4294 118 68.3153 118 77.2706Z" fill="#3E680C"/>
<path d="M54 88.2995C54 95.8478 61.345 94.6451 69.4054 94.6451C77.4658 94.6451 84 102.193 84 94.6451C84 87.0968 80.7568 81.4658 69.4054 63.4052C60.4865 54.1309 71.027 73.6558 54 88.2995Z" fill="#3E680C"/>
<path d="M73.8149 85.987C61.4277 99.373 76.0576 106 82.8988 106C89.7401 106 98.5893 94.283 95.286 83.6899C91.9827 73.0967 87.8536 65.1642 87.8536 56.736C87.8536 48.3077 86.202 72.6009 73.8149 85.987Z" fill="#3E680C"/>
<path d="M23.6839 89.3044C11.2722 102.922 26.6881 112 33.5429 112C40.3977 112 45.1272 99.8956 45.9547 89.3044C46.7821 78.7131 36.0955 73.7859 29.476 66.725C22.8564 59.6642 36.0956 75.687 23.6839 89.3044Z" fill="#3E680C"/>
<path d="M42 81.7204C42 93.9721 44.0246 88.4413 52.5 88.4413C60.9754 88.4413 63 95.8359 63 85.4835C63 79.8801 59.7693 86.4693 48.4615 57.8771C44.1724 47.0318 42 69.4687 42 81.7204Z" fill="#3E680C"/>
<path d="M87.0001 90.2996C87.0001 97.8479 94.5899 96.6452 102.919 96.6452C111.248 96.6452 118 104.194 118 96.6452C118 89.0969 114.649 83.4659 102.919 65.4053C93.7028 56.1309 104.595 75.6559 87.0001 90.2996Z" fill="#3E680C"/>
<path d="M3 85.8864C3 94.0161 9.80546 94.3868 15.9231 94.3868C22.0407 94.3868 27 102.517 27 94.3868C27 86.2571 24.5385 80.1924 15.9231 60.7407C9.15384 50.7521 15.9231 70.1149 3 85.8864Z" fill="#3E680C"/>
<rect width="130" height="29" transform="matrix(-1 0 0 1 133 86)" fill="#3E680C"/>
<path d="M257 90.4893C257 100.185 259.122 106.575 265.474 106.575C271.825 106.575 280 111.836 280 102.141C277.445 81.2759 267.761 90.5027 260.195 67.7424C256.563 56.8189 258.353 81.4513 257 90.4893Z" fill="#3E680C"/>
<path d="M269 80.3044C269 90.379 271.215 96.5193 277.842 96.5193C284.47 96.5193 293 101.986 293 91.9115C277.842 68.8054 280.685 79.4834 272.79 55.8335C269 44.4831 269 70.2298 269 80.3044Z" fill="#3E680C"/>
<path d="M322 92.9887C322 101.557 315.879 100.192 309.162 100.192C302.445 100.192 297 108.76 297 100.192C297 91.6234 299.703 85.2315 309.162 64.7303C316.595 54.2027 307.811 76.3661 322 92.9887Z" fill="#3E680C"/>
<path d="M305.899 90.2401C316.451 105.463 303.988 113 298.16 113C292.333 113 284.794 99.6748 287.608 87.6277C290.422 75.5807 293.94 66.5593 293.94 56.9743C293.94 47.3892 295.347 75.0168 305.899 90.2401Z" fill="#3E680C"/>
<path d="M346.531 93.89C355.724 108.956 344.305 119 339.228 119C334.15 119 330.647 105.608 330.034 93.89C329.421 82.172 337.337 76.7206 342.24 68.9086C347.143 61.0966 337.337 78.824 346.531 93.89Z" fill="#3E680C"/>
<path d="M331 85.4317C331 99.385 329.458 93.086 323 93.086C316.543 93.086 315 101.508 315 89.7174C315 83.3357 317.462 90.8401 326.077 58.2768C329.345 45.9252 331 71.4783 331 85.4317Z" fill="#3E680C"/>
<path d="M294 95.7266C294 104.499 287.879 103.101 281.162 103.101C274.445 103.101 269 111.874 269 103.101C269 94.3288 271.703 87.7847 281.162 66.7954C288.595 56.0171 279.811 78.7082 294 95.7266Z" fill="#3E680C"/>
<path d="M364 90.3723C364 99.5182 358.045 99.9352 352.692 99.9352C347.339 99.9352 343 109.081 343 99.9352C343 90.7893 345.154 83.9665 352.692 62.0834C358.615 50.8462 352.692 72.6293 364 90.3723Z" fill="#3E680C"/>
<rect x="257" y="90" width="107" height="33" fill="#3E680C"/>
<g filter="url(#filter5_d)">
<path d="M736 62.5076C736 71.4628 733.324 76.9208 725.316 76.9208C717.308 76.9208 707 81.7802 707 72.825C725.316 52.2862 721.88 61.7778 731.421 40.7557C736 30.6665 736 53.5524 736 62.5076Z" fill="#4B8506"/>
<path d="M722 52.5076C722 61.4628 719.416 66.9208 711.684 66.9208C703.952 66.9208 694 71.7802 694 62.825C711.684 42.2862 708.367 51.7778 717.579 30.7557C722 20.6665 722 43.5524 722 52.5076Z" fill="#4B8506"/>
<path d="M664 56.6651C664 64.3748 667.986 69.8105 675.818 69.8105C683.651 69.8105 690 77.5202 690 69.8105C690 62.1008 686.061 51.181 675.818 31.7371C667.152 22.2645 680.546 41.7083 664 56.6651Z" fill="#4B8506"/>
<path d="M676.947 58.5932C665.453 72.1795 682.093 81.2371 688.441 81.2371C694.789 81.2371 699.169 69.1603 699.935 58.5932C700.701 48.0261 694.571 42.9941 688.441 35.9494C682.311 28.9046 688.441 45.0069 676.947 58.5932Z" fill="#4B8506"/>
<path d="M629.947 64.075C618.453 77.3722 635.093 86.2371 641.441 86.2371C647.789 86.2371 652.169 74.4172 652.935 64.075C653.701 53.7328 647.571 48.8078 641.441 41.913C635.311 35.0181 641.441 50.7778 629.947 64.075Z" fill="#4B8506"/>
<path d="M649 56.8515C649 69.2491 651.672 76.8052 659.667 76.8052C667.662 76.8052 681 80.2236 681 67.826C662.714 39.3921 670.333 58.8469 659.667 29.9142C655.621 18.9397 649 44.454 649 56.8515Z" fill="#4B8506"/>
<path d="M693 65.2745C693 73.0268 700.1 71.7916 707.892 71.7916C715.684 71.7916 722 79.5439 722 71.7916C722 64.0392 718.865 58.2561 707.892 39.7073C699.27 30.1824 709.46 50.235 693 65.2745Z" fill="#4B8506"/>
<path d="M612 61.1235C612 69.2532 618.806 69.6239 624.923 69.6239C631.041 69.6239 636 77.7536 636 69.6239C636 61.4941 633.539 55.4295 624.923 35.9778C618.154 25.9892 624.923 45.3519 612 61.1235Z" fill="#4B8506"/>
<rect width="124" height="29" transform="matrix(-1 -9.17939e-09 1.16195e-08 1 736 61.2371)" fill="#4B8506"/>
</g>
<g filter="url(#filter6_d)">
<path d="M406 66.2021C406 75.3825 400.859 73.9197 395.216 73.9197C389.574 73.9197 385 83.1001 385 73.9197C385 64.7393 387.27 57.8909 395.216 35.9252C401.46 24.6457 394.081 48.3922 406 66.2021Z" fill="#4B8506"/>
<path d="M394.076 60.5383C402.59 77.0153 390.265 88 385.562 88C380.86 88 377.616 73.3537 377.048 60.5383C376.481 47.7229 381.022 41.6203 385.562 33.0767C390.103 24.533 385.562 44.0614 394.076 60.5383Z" fill="#4B8506"/>
<path d="M429.076 67.0565C437.59 83.8226 425.265 95 420.562 95C415.86 95 412.616 80.0968 412.048 67.0565C411.481 54.0163 416.022 47.8066 420.562 39.1131C425.103 30.4196 420.562 50.2905 429.076 67.0565Z" fill="#4B8506"/>
<path d="M414 58.3142C414 73.9352 411.996 83.4558 406 83.4558C400.004 83.4558 390 87.7631 390 72.1421C403.714 36.3154 398 60.8283 406 24.3732C409.035 10.5453 414 42.6933 414 58.3142Z" fill="#4B8506"/>
<path d="M453 50.0271C453 65.2522 450.952 74.5316 444.822 74.5316C438.693 74.5316 430 78.509 430 63.2838C435.229 74.3108 447.378 59.404 447.378 25.7058C447.378 8.31905 453 34.8019 453 50.0271Z" fill="#4B8506"/>
<path d="M382 68.2022C382 77.3826 376.859 75.9198 371.216 75.9198C365.574 75.9198 361 85.1002 361 75.9198C361 66.7394 363.27 59.891 371.216 37.9253C377.46 26.6457 370.081 50.3923 382 68.2022Z" fill="#4B8506"/>
<path d="M444 86.9522C444 98.3097 437.478 86.9523 431.615 86.9523C425.753 86.9523 421 98.3097 421 86.9523C421 75.5948 423.359 67.1223 431.615 39.9477C438.103 25.9932 431.615 64.9188 444 86.9522Z" fill="#4B8506"/>
</g>
<g filter="url(#filter7_d)">
<path d="M498 53.3281C498 62.955 495.97 68.8223 489.895 68.8223C483.82 68.8223 476 74.0462 476 64.4193C489.895 42.3401 487.289 52.5436 494.526 29.9448C498 19.0989 498 43.7013 498 53.3281Z" fill="#4B8506"/>
<path d="M576 66.4881C576 74.8525 570.124 73.5197 563.676 73.5197C557.227 73.5197 552 81.8841 552 73.5197C552 65.1553 554.595 58.9156 563.676 38.9025C570.811 28.6256 562.378 50.2613 576 66.4881Z" fill="#4B8506"/>
<path d="M561.638 62.1481C571.429 76.6016 557.254 86.2373 551.847 86.2373C546.439 86.2373 542.708 73.3897 542.056 62.1481C541.403 50.9065 546.625 45.5533 551.847 38.0589C557.069 30.5645 551.847 47.6946 561.638 62.1481Z" fill="#4B8506"/>
<path d="M598.784 68.1481C608.15 82.6016 594.591 92.2373 589.419 92.2373C584.246 92.2373 580.677 79.3897 580.053 68.1481C579.429 56.9065 584.424 51.5533 589.419 44.0589C594.413 36.5645 589.419 53.6946 598.784 68.1481Z" fill="#4B8506"/>
<path d="M584 60.2209C584 73.6103 581.829 81.7708 575.333 81.7708C568.837 81.7708 558 85.4628 558 72.0734C572.857 41.3648 566.667 62.3758 575.333 31.1286C578.621 19.2761 584 46.8315 584 60.2209Z" fill="#4B8506"/>
<path d="M548 76.8664C548 87.2709 542.614 85.6131 536.703 85.6131C530.792 85.6131 526 96.0175 526 85.6131C526 75.2086 528.378 67.447 536.703 42.5527C543.243 29.7691 535.514 56.6819 548 76.8664Z" fill="#4B8506"/>
<path d="M619 73.2373C619 84.8013 614.798 85.0977 608.425 85.0977C602.053 85.0977 596.887 96.6616 596.887 85.0977C596.887 73.5337 597.526 67.406 606.5 39.7373C611.203 25.2372 605.539 50.8033 619 73.2373Z" fill="#4B8506"/>
</g>
<g filter="url(#filter8_d)">
<path d="M499.07 54.5932C490.13 68.1795 503.072 77.2371 508.01 77.2371C512.947 77.2371 516.353 65.1603 516.949 54.5932C517.545 44.0261 512.778 38.9941 508.01 31.9494C503.242 24.9046 508.01 41.0069 499.07 54.5932Z" fill="#4B8506"/>
<path d="M464.07 60.075C455.13 73.3722 468.072 82.2371 473.01 82.2371C477.947 82.2371 481.353 70.4172 481.949 60.075C482.545 49.7328 477.778 44.8078 473.01 37.913C468.242 31.0181 473.01 46.7778 464.07 60.075Z" fill="#4B8506"/>
<path d="M479 52.8515C479 65.2491 481.004 72.8051 487 72.8051C492.996 72.8051 503 76.2236 503 63.826C489.286 35.3921 495 54.8468 487 25.9142C483.966 14.9397 479 40.4539 479 52.8515Z" fill="#4B8506"/>
<path d="M511 61.2745C511 69.0268 516.386 67.7916 522.297 67.7916C528.208 67.7916 533 75.5439 533 67.7916C533 60.0392 530.622 54.2561 522.297 35.7073C515.757 26.1824 523.487 46.235 511 61.2745Z" fill="#4B8506"/>
<path d="M446 64.7495C446 72.5964 452.522 64.7495 458.385 64.7495C464.247 64.7495 469 72.5965 469 64.7495C469 56.9025 466.641 51.0488 458.385 32.2736C451.897 22.6323 458.385 49.5264 446 64.7495Z" fill="#4B8506"/>
</g>
<g filter="url(#filter9_d)">
<path d="M447.969 63.5704L533 62.2371V82.2371L438 79.1121L447.969 63.5704Z" fill="#4B8506"/>
</g>
<path d="M503 87.319C503 97.2402 505.584 103.779 513.316 103.779C521.048 103.779 531 109.162 531 99.2412C527.889 77.8914 516.101 87.3327 506.889 64.0431C502.468 52.8656 504.647 78.0709 503 87.319Z" fill="#3E680C"/>
<path d="M517 77.1482C517 87.4467 519.768 93.7233 528.053 93.7233C536.337 93.7233 547 99.3117 547 89.0132C528.053 65.3936 531.607 76.3089 521.737 52.1335C517 40.5308 517 66.8497 517 77.1482Z" fill="#3E680C"/>
<path d="M582 90.7013C582 99.6777 574.41 98.2474 566.081 98.2474C557.752 98.2474 551 107.224 551 98.2474C551 89.271 554.351 82.5748 566.081 61.0973C575.297 50.0683 564.405 73.2872 582 90.7013Z" fill="#3E680C"/>
<path d="M562.185 87.6923C574.572 103.441 559.942 111.237 553.101 111.237C546.26 111.237 537.411 97.4523 540.714 84.9898C544.017 72.5273 548.146 63.1949 548.146 53.2793C548.146 43.3638 549.798 71.944 562.185 87.6923Z" fill="#3E680C"/>
<path d="M612.49 91.1612C624.442 106.807 609.597 117.237 602.996 117.237C596.395 117.237 591.841 103.33 591.044 91.1612C590.247 78.9925 600.538 73.3314 606.912 65.219C613.286 57.1065 600.538 75.5157 612.49 91.1612Z" fill="#3E680C"/>
<path d="M593 83.1531C593 97.7871 590.976 91.1808 582.5 91.1808C574.025 91.1808 572 100.013 572 87.6479C572 80.9549 575.231 88.8254 586.539 54.6736C590.828 41.7195 593 68.5191 593 83.1531Z" fill="#3E680C"/>
<path d="M548 92.7014C548 101.678 540.41 100.248 532.081 100.248C523.752 100.248 517 109.224 517 100.248C517 91.2711 520.351 84.5749 532.081 63.0974C541.297 52.0684 530.405 75.2873 548 92.7014Z" fill="#3E680C"/>
<path d="M633 87.3064C633 96.6556 625.911 97.0818 619.539 97.0818C613.166 97.0818 608 106.431 608 97.0818C608 87.7327 610.564 80.7583 619.539 58.3889C626.59 46.9019 619.539 69.1691 633 87.3064Z" fill="#3E680C"/>
<rect x="503" y="87.2371" width="130" height="34" fill="#3E680C"/>
<path d="M508 78.5254C508 87.0937 505.047 92.7407 496.211 92.7407C487.374 92.7407 476 97.3901 476 88.8219C479.556 70.3834 493.028 78.5372 503.556 58.4235C508.608 48.7702 506.118 70.5384 508 78.5254Z" fill="#3E680C"/>
<path d="M491 70.2706C491 79.2258 487.863 84.6838 478.474 84.6838C469.085 84.6838 457 89.5432 457 80.588C478.474 60.0492 474.446 69.5408 485.632 48.5187C491 38.4294 491 61.3154 491 70.2706Z" fill="#3E680C"/>
<path d="M417 81.2996C417 88.8479 425.569 87.6452 434.973 87.6452C444.377 87.6452 452 95.1935 452 87.6452C452 80.0968 448.216 74.4659 434.973 56.4052C424.568 47.1309 436.865 66.6559 417 81.2996Z" fill="#3E680C"/>
<path d="M439.528 78.987C425.306 92.373 442.103 99 449.958 99C457.813 99 467.973 87.2831 464.18 76.6899C460.388 66.0968 455.647 58.1642 455.647 49.736C455.647 41.3078 453.75 65.601 439.528 78.987Z" fill="#3E680C"/>
<path d="M381.378 82.3044C367.127 95.9218 384.827 105 392.698 105C400.568 105 405.998 92.8956 406.948 82.3044C407.898 71.7131 395.628 66.7859 388.028 59.7251C380.428 52.6642 395.628 68.687 381.378 82.3044Z" fill="#3E680C"/>
<path d="M403 74.7205C403 86.9722 405.314 81.4414 415 81.4414C424.686 81.4414 427 88.8359 427 78.4836C427 72.8801 423.308 79.4694 410.385 50.8772C405.483 40.0318 403 62.4688 403 74.7205Z" fill="#3E680C"/>
<path d="M455 83.2996C455 90.8479 463.814 89.6452 473.487 89.6452C483.159 89.6452 491 97.1936 491 89.6452C491 82.0969 487.108 76.4659 473.487 58.4053C462.784 49.131 475.432 68.6559 455 83.2996Z" fill="#3E680C"/>
<path d="M358 78.8865C358 87.0162 365.94 87.3868 373.077 87.3868C380.214 87.3868 386 95.5165 386 87.3868C386 79.2571 383.128 73.1925 373.077 53.7408C365.18 43.7521 373.077 63.1149 358 78.8865Z" fill="#3E680C"/>
<rect width="150" height="29" transform="matrix(-1 -4.66255e-09 5.21927e-09 1 508 79)" fill="#3E680C"/>
<path d="M631 87.7264C631 97.422 633.307 103.812 640.211 103.812C647.114 103.812 656 109.073 656 99.3776C653.222 78.513 642.697 87.7397 634.472 64.9794C630.525 54.0559 632.471 78.6884 631 87.7264Z" fill="#3E680C"/>
<path d="M644 77.5415C644 87.6161 646.492 93.7563 653.947 93.7563C661.403 93.7563 671 99.2232 671 89.1486C653.947 66.0424 657.146 76.7204 648.263 53.0706C644 41.7202 644 67.4669 644 77.5415Z" fill="#3E680C"/>
<path d="M703 90.2257C703 98.7941 696.145 97.4289 688.622 97.4289C681.099 97.4289 675 105.997 675 97.4289C675 88.8605 678.027 82.4686 688.622 61.9673C696.946 51.4397 687.108 73.6032 703 90.2257Z" fill="#3E680C"/>
<path d="M684.542 87.4772C696.011 102.701 682.465 110.237 676.131 110.237C669.796 110.237 661.603 96.9119 664.661 84.8648C667.72 72.8177 671.543 63.7964 671.543 54.2113C671.543 44.6263 673.072 72.2539 684.542 87.4772Z" fill="#3E680C"/>
<path d="M730.01 91.127C740.583 106.193 727.451 116.237 721.612 116.237C715.772 116.237 711.744 102.845 711.039 91.127C710.334 79.4091 719.437 73.9577 725.076 66.1456C730.715 58.3336 719.437 76.061 730.01 91.127Z" fill="#3E680C"/>
<path d="M713 82.6687C713 96.622 711.265 90.3231 704 90.3231C696.735 90.3231 695 98.7446 695 86.9544C695 80.5727 697.769 88.0772 707.462 55.5138C711.138 43.1622 713 68.7154 713 82.6687Z" fill="#3E680C"/>
<path d="M672 92.9637C672 101.736 665.145 100.338 657.622 100.338C650.099 100.338 644 109.111 644 100.338C644 91.5659 647.027 85.0218 657.622 64.0324C665.946 53.2542 656.108 75.9453 672 92.9637Z" fill="#3E680C"/>
<path d="M749 87.6093C749 96.7553 742.478 97.1723 736.615 97.1723C730.753 97.1723 726 106.318 726 97.1723C726 88.0263 728.359 81.2036 736.615 59.3204C743.103 48.0832 736.615 69.8663 749 87.6093Z" fill="#3E680C"/>
<rect x="631" y="87.2371" width="118" height="33" fill="#3E680C"/>
<g filter="url(#filter10_d)">
<path d="M1100 65.2706C1100 74.2258 1102.95 79.6838 1111.79 79.6838C1120.63 79.6838 1132 84.5432 1132 75.588C1111.79 55.0492 1115.58 64.5407 1105.05 43.5187C1100 33.4294 1100 56.3153 1100 65.2706Z" fill="#4B8506"/>
<path d="M1115 55.2706C1115 64.2258 1117.86 69.6838 1126.42 69.6838C1134.98 69.6838 1146 74.5432 1146 65.588C1126.42 45.0492 1130.09 54.5407 1119.89 33.5187C1115 23.4294 1115 46.3153 1115 55.2706Z" fill="#4B8506"/>
<path d="M1180 59.4281C1180 67.1378 1175.55 72.5735 1166.82 72.5735C1158.08 72.5735 1151 80.2832 1151 72.5735C1151 64.8637 1155.39 53.9439 1166.82 34.5C1176.48 25.0274 1161.55 44.4713 1180 59.4281Z" fill="#4B8506"/>
<path d="M1165.61 61.3562C1178.39 74.9424 1159.9 84 1152.84 84C1145.79 84 1140.92 71.9232 1140.07 61.3562C1139.22 50.7891 1146.03 45.7571 1152.84 38.7123C1159.65 31.6676 1152.84 47.7699 1165.61 61.3562Z" fill="#4B8506"/>
<path d="M1217.61 66.8379C1230.39 80.1351 1211.9 89 1204.84 89C1197.79 89 1192.92 77.1802 1192.07 66.8379C1191.22 56.4957 1198.03 51.5708 1204.84 44.6759C1211.65 37.781 1204.84 53.5407 1217.61 66.8379Z" fill="#4B8506"/>
<path d="M1196 59.6145C1196 72.0121 1193.08 79.5681 1184.33 79.5681C1175.59 79.5681 1161 82.9866 1161 70.589C1181 42.1551 1172.67 61.6098 1184.33 32.6771C1188.76 21.7026 1196 47.2169 1196 59.6145Z" fill="#4B8506"/>
<path d="M1148 68.0374C1148 75.7897 1139.92 74.5545 1131.05 74.5545C1122.19 74.5545 1115 82.3069 1115 74.5545C1115 66.8022 1118.57 61.019 1131.05 42.4703C1140.86 32.9453 1129.27 52.9979 1148 68.0374Z" fill="#4B8506"/>
<path d="M1237 63.8864C1237 72.0161 1229.34 72.3868 1222.46 72.3868C1215.58 72.3868 1210 80.5165 1210 72.3868C1210 64.2571 1212.77 58.1924 1222.46 38.7407C1230.08 28.7521 1222.46 48.1149 1237 63.8864Z" fill="#4B8506"/>
<rect x="1100" y="64" width="137" height="29" fill="#4B8506"/>
</g>
<g filter="url(#filter11_d)">
<path d="M1409 71.2021C1409 80.3825 1412.92 78.9197 1417.22 78.9197C1421.52 78.9197 1425 88.1001 1425 78.9197C1425 69.7393 1423.27 62.8909 1417.22 40.9252C1412.46 29.6457 1418.08 53.3922 1409 71.2021Z" fill="#4B8506"/>
<path d="M1418.34 64.5019C1411.53 80.4007 1421.39 91 1425.15 91C1428.91 91 1431.51 76.8676 1431.96 64.5019C1432.42 52.1362 1428.78 46.2476 1425.15 38.0038C1421.52 29.7599 1425.15 48.6031 1418.34 64.5019Z" fill="#4B8506"/>
<path d="M1389.49 71.5383C1382.25 88.0153 1392.73 99 1396.72 99C1400.72 99 1403.48 84.3537 1403.96 71.5383C1404.44 58.7229 1400.58 52.6203 1396.72 44.0767C1392.86 35.533 1396.72 55.0614 1389.49 71.5383Z" fill="#4B8506"/>
<path d="M1402 63.1297C1402 78.2547 1403.67 87.4731 1408.67 87.4731C1413.66 87.4731 1422 91.6436 1422 76.5185C1410.57 41.8292 1415.33 65.5639 1408.67 30.2661C1406.14 16.8772 1402 48.0046 1402 63.1297Z" fill="#4B8506"/>
<path d="M1428 73.2022C1428 82.3826 1432.16 80.9198 1436.73 80.9198C1441.3 80.9198 1445 90.1002 1445 80.9198C1445 71.7394 1443.16 64.891 1436.73 42.9253C1431.68 31.6457 1437.65 55.3923 1428 73.2022Z" fill="#4B8506"/>
<path d="M1378 91.044C1378 102.195 1383.39 91.0441 1388.23 91.0441C1393.07 91.0441 1397 102.195 1397 91.0441C1397 79.8931 1395.05 71.5746 1388.23 44.8941C1382.87 31.1933 1388.23 69.4112 1378 91.044Z" fill="#4B8506"/>
</g>
<g filter="url(#filter12_d)">
<path d="M1351 56.0909C1351 65.7178 1353.03 71.5851 1359.11 71.5851C1365.18 71.5851 1373 76.809 1373 67.1821C1359.11 45.1029 1361.71 55.3064 1354.47 32.7076C1351 21.8617 1351 46.4641 1351 56.0909Z" fill="#4B8506"/>
<path d="M1273 69.2509C1273 77.6153 1278.88 76.2825 1285.32 76.2825C1291.77 76.2825 1297 84.6469 1297 76.2825C1297 67.9182 1294.41 61.6785 1285.32 41.6653C1278.19 31.3884 1286.62 53.0241 1273 69.2509Z" fill="#4B8506"/>
<path d="M1287.36 64.9109C1277.57 79.3644 1291.75 89.0001 1297.15 89.0001C1302.56 89.0001 1306.29 76.1525 1306.94 64.9109C1307.6 53.6693 1302.38 48.3161 1297.15 40.8217C1291.93 33.3273 1297.15 50.4574 1287.36 64.9109Z" fill="#4B8506"/>
<path d="M1250.22 70.9109C1240.85 85.3644 1254.41 95.0001 1259.58 95.0001C1264.75 95.0001 1268.32 82.1525 1268.95 70.9109C1269.57 59.6694 1264.58 54.3162 1259.58 46.8217C1254.59 39.3273 1259.58 56.4574 1250.22 70.9109Z" fill="#4B8506"/>
<path d="M1265 62.9837C1265 76.3731 1267.17 84.5336 1273.67 84.5336C1280.16 84.5336 1291 88.2256 1291 74.8362C1276.14 44.1276 1282.33 65.1387 1273.67 33.8914C1270.38 22.0389 1265 49.5943 1265 62.9837Z" fill="#4B8506"/>
<path d="M1301 79.6293C1301 90.0337 1306.39 88.3759 1312.3 88.3759C1318.21 88.3759 1323 98.7804 1323 88.3759C1323 77.9715 1320.62 70.2099 1312.3 45.3155C1305.76 32.532 1313.49 59.4447 1301 79.6293Z" fill="#4B8506"/>
<path d="M1230 76.0001C1230 87.5641 1234.2 87.8605 1240.57 87.8605C1246.95 87.8605 1252.11 99.4244 1252.11 87.8605C1252.11 76.2965 1251.47 70.1688 1242.5 42.5001C1237.8 28.0001 1243.46 53.5661 1230 76.0001Z" fill="#4B8506"/>
</g>
<g filter="url(#filter13_d)">
<path d="M1349.93 57.3562C1358.87 70.9424 1345.93 80 1340.99 80C1336.05 80 1332.65 67.9232 1332.05 57.3562C1331.45 46.7891 1336.22 41.7571 1340.99 34.7123C1345.76 27.6676 1340.99 43.7699 1349.93 57.3562Z" fill="#4B8506"/>
<path d="M1384.93 62.8379C1393.87 76.1351 1380.93 85 1375.99 85C1371.05 85 1367.65 73.1802 1367.05 62.8379C1366.45 52.4957 1371.22 47.5708 1375.99 40.6759C1380.76 33.781 1375.99 49.5407 1384.93 62.8379Z" fill="#4B8506"/>
<path d="M1370 55.6145C1370 68.012 1368 75.5681 1362 75.5681C1356 75.5681 1346 78.9865 1346 66.589C1359.71 38.1551 1354 57.6098 1362 28.6771C1365.03 17.7026 1370 43.2169 1370 55.6145Z" fill="#4B8506"/>
<path d="M1338 64.0374C1338 71.7897 1332.61 70.5545 1326.7 70.5545C1320.79 70.5545 1316 78.3068 1316 70.5545C1316 62.8022 1318.38 57.019 1326.7 38.4703C1333.24 28.9453 1325.51 48.9979 1338 64.0374Z" fill="#4B8506"/>
<path d="M1403 67.5124C1403 75.3594 1396.48 67.5125 1390.62 67.5125C1384.75 67.5125 1380 75.3594 1380 67.5125C1380 59.6655 1382.36 53.8117 1390.62 35.0365C1397.1 25.3953 1390.62 52.2893 1403 67.5124Z" fill="#4B8506"/>
</g>
<g filter="url(#filter14_d)">
<path d="M1401.03 66.3333L1316 65V85L1411 81.875L1401.03 66.3333Z" fill="#4B8506"/>
</g>
<path d="M1346 90.082C1346 100.003 1343.42 106.542 1335.68 106.542C1327.95 106.542 1318 111.925 1318 102.004C1321.11 80.6544 1332.9 90.0957 1342.11 66.8061C1346.53 55.6285 1344.35 80.8338 1346 90.082Z" fill="#3E680C"/>
<path d="M1332 79.9111C1332 90.2096 1329.23 96.4863 1320.95 96.4863C1312.66 96.4863 1302 102.075 1302 91.7761C1320.95 68.1565 1317.39 79.0718 1327.26 54.8964C1332 43.2938 1332 69.6126 1332 79.9111Z" fill="#3E680C"/>
<path d="M1267 93.4642C1267 102.441 1274.59 101.01 1282.92 101.01C1291.25 101.01 1298 109.987 1298 101.01C1298 92.034 1294.65 85.3377 1282.92 63.8602C1273.7 52.8313 1284.59 76.0501 1267 93.4642Z" fill="#3E680C"/>
<path d="M1286.81 90.4552C1274.43 106.204 1289.06 114 1295.9 114C1302.74 114 1311.59 100.215 1308.29 87.7528C1304.98 75.2903 1300.85 65.9578 1300.85 56.0423C1300.85 46.1267 1299.2 74.707 1286.81 90.4552Z" fill="#3E680C"/>
<path d="M1236.51 93.9241C1224.56 109.57 1239.4 120 1246 120C1252.61 120 1257.16 106.093 1257.96 93.9241C1258.75 81.7555 1248.46 76.0944 1242.09 67.9819C1235.71 59.8694 1248.46 78.2786 1236.51 93.9241Z" fill="#3E680C"/>
<path d="M1256 85.9161C1256 100.55 1258.02 93.9438 1266.5 93.9438C1274.98 93.9438 1277 102.776 1277 90.4108C1277 83.7178 1273.77 91.5884 1262.46 57.4365C1258.17 44.4824 1256 71.2821 1256 85.9161Z" fill="#3E680C"/>
<path d="M1301 95.4643C1301 104.441 1308.59 103.01 1316.92 103.01C1325.25 103.01 1332 111.987 1332 103.01C1332 94.0341 1328.65 87.3378 1316.92 65.8603C1307.7 54.8314 1318.59 78.0502 1301 95.4643Z" fill="#3E680C"/>
<path d="M1216 90.0694C1216 99.4185 1223.09 99.8448 1229.46 99.8448C1235.83 99.8448 1241 109.194 1241 99.8448C1241 90.4956 1238.44 83.5213 1229.46 61.1518C1222.41 49.6649 1229.46 71.9321 1216 90.0694Z" fill="#3E680C"/>
<rect width="130" height="34" transform="matrix(-1 0 0 1 1346 90)" fill="#3E680C"/>
<path d="M1342 85.5254C1342 94.0937 1344.03 99.7406 1350.11 99.7406C1356.18 99.7406 1364 104.39 1364 95.8218C1361.56 77.3834 1352.29 85.5372 1345.06 65.4234C1341.58 55.7701 1343.29 77.5383 1342 85.5254Z" fill="#3E680C"/>
<path d="M1354 77.2706C1354 86.2258 1356.12 91.6838 1362.47 91.6838C1368.82 91.6838 1377 96.5432 1377 87.588C1362.47 67.0492 1365.2 76.5407 1357.63 55.5187C1354 45.4294 1354 68.3153 1354 77.2706Z" fill="#3E680C"/>
<path d="M1404 88.2995C1404 95.8478 1398.12 94.6451 1391.68 94.6451C1385.23 94.6451 1380 102.193 1380 94.6451C1380 87.0968 1382.59 81.4658 1391.68 63.4052C1398.81 54.1309 1390.38 73.6558 1404 88.2995Z" fill="#3E680C"/>
<path d="M1389.08 85.987C1399.17 99.373 1387.25 106 1381.68 106C1376.1 106 1368.89 94.283 1371.58 83.6899C1374.27 73.0967 1377.64 65.1642 1377.64 56.736C1377.64 48.3077 1378.98 72.6009 1389.08 85.987Z" fill="#3E680C"/>
<path d="M1429.18 89.3044C1439.3 102.922 1426.74 112 1421.15 112C1415.56 112 1411.71 99.8956 1411.04 89.3044C1410.36 78.7131 1419.07 73.7859 1424.46 66.725C1429.86 59.6642 1419.07 75.687 1429.18 89.3044Z" fill="#3E680C"/>
<path d="M1414 81.7204C1414 93.9721 1412.36 88.4413 1405.5 88.4413C1398.64 88.4413 1397 95.8359 1397 85.4835C1397 79.8801 1399.62 86.4693 1408.77 57.8771C1412.24 47.0318 1414 69.4687 1414 81.7204Z" fill="#3E680C"/>
<path d="M1378 90.2996C1378 97.8479 1372.12 96.6452 1365.68 96.6452C1359.23 96.6452 1354 104.194 1354 96.6452C1354 89.0969 1356.59 83.4659 1365.68 65.4053C1372.81 56.1309 1364.38 75.6559 1378 90.2996Z" fill="#3E680C"/>
<path d="M1445 85.8864C1445 94.0161 1439.61 94.3868 1434.77 94.3868C1429.93 94.3868 1426 102.517 1426 94.3868C1426 86.2571 1427.95 80.1924 1434.77 60.7407C1440.13 50.7521 1434.77 70.1149 1445 85.8864Z" fill="#3E680C"/>
<rect x="1342" y="86" width="103" height="29" fill="#3E680C"/>
<path d="M1218 90.4893C1218 100.185 1215.88 106.575 1209.53 106.575C1203.18 106.575 1195 111.836 1195 102.141C1197.56 81.2759 1207.24 90.5027 1214.81 67.7424C1218.44 56.8189 1216.65 81.4513 1218 90.4893Z" fill="#3E680C"/>
<path d="M1206 80.3044C1206 90.379 1203.79 96.5193 1197.16 96.5193C1190.53 96.5193 1182 101.986 1182 91.9115C1197.16 68.8054 1194.31 79.4834 1202.21 55.8335C1206 44.4831 1206 70.2298 1206 80.3044Z" fill="#3E680C"/>
<path d="M1153 92.9887C1153 101.557 1159.12 100.192 1165.84 100.192C1172.55 100.192 1178 108.76 1178 100.192C1178 91.6234 1175.3 85.2315 1165.84 64.7303C1158.41 54.2027 1167.19 76.3661 1153 92.9887Z" fill="#3E680C"/>
<path d="M1169.1 90.2401C1158.55 105.463 1171.01 113 1176.84 113C1182.67 113 1190.21 99.6748 1187.39 87.6277C1184.58 75.5807 1181.06 66.5593 1181.06 56.9743C1181.06 47.3892 1179.65 75.0168 1169.1 90.2401Z" fill="#3E680C"/>
<path d="M1128.47 93.89C1119.28 108.956 1130.69 119 1135.77 119C1140.85 119 1144.35 105.608 1144.97 93.89C1145.58 82.172 1137.66 76.7206 1132.76 68.9086C1127.86 61.0966 1137.66 78.824 1128.47 93.89Z" fill="#3E680C"/>
<path d="M1144 85.4317C1144 99.385 1145.54 93.086 1152 93.086C1158.46 93.086 1160 101.508 1160 89.7174C1160 83.3357 1157.54 90.8401 1148.92 58.2768C1145.66 45.9252 1144 71.4783 1144 85.4317Z" fill="#3E680C"/>
<path d="M1181 95.7266C1181 104.499 1187.12 103.101 1193.84 103.101C1200.55 103.101 1206 111.874 1206 103.101C1206 94.3288 1203.3 87.7847 1193.84 66.7954C1186.41 56.0171 1195.19 78.7082 1181 95.7266Z" fill="#3E680C"/>
<path d="M1111 90.3723C1111 99.5182 1116.95 99.9352 1122.31 99.9352C1127.66 99.9352 1132 109.081 1132 99.9352C1132 90.7893 1129.85 83.9665 1122.31 62.0834C1116.38 50.8462 1122.31 72.6293 1111 90.3723Z" fill="#3E680C"/>
<rect width="107" height="33" transform="matrix(-1 0 0 1 1218 90)" fill="#3E680C"/>
<g filter="url(#filter15_d)">
<path d="M739 62.5076C739 71.4628 741.676 76.9208 749.684 76.9208C757.692 76.9208 768 81.7802 768 72.825C749.684 52.2862 753.12 61.7778 743.579 40.7557C739 30.6665 739 53.5524 739 62.5076Z" fill="#4B8506"/>
<path d="M753 52.5076C753 61.4628 755.584 66.9208 763.316 66.9208C771.048 66.9208 781 71.7802 781 62.825C763.316 42.2862 766.633 51.7778 757.421 30.7557C753 20.6665 753 43.5524 753 52.5076Z" fill="#4B8506"/>
<path d="M811 56.6651C811 64.3748 807.014 69.8105 799.182 69.8105C791.349 69.8105 785 77.5202 785 69.8105C785 62.1008 788.939 51.181 799.182 31.7371C807.849 22.2645 794.455 41.7083 811 56.6651Z" fill="#4B8506"/>
<path d="M798.053 58.5932C809.547 72.1795 792.907 81.2371 786.559 81.2371C780.211 81.2371 775.831 69.1603 775.065 58.5932C774.299 48.0261 780.429 42.9941 786.559 35.9494C792.689 28.9046 786.559 45.0069 798.053 58.5932Z" fill="#4B8506"/>
<path d="M845.053 64.075C856.547 77.3722 839.907 86.2371 833.559 86.2371C827.211 86.2371 822.831 74.4172 822.065 64.075C821.299 53.7328 827.429 48.8078 833.559 41.913C839.689 35.0181 833.559 50.7778 845.053 64.075Z" fill="#4B8506"/>
<path d="M826 56.8515C826 69.2491 823.328 76.8052 815.333 76.8052C807.338 76.8052 794 80.2236 794 67.826C812.286 39.3921 804.667 58.8469 815.333 29.9142C819.379 18.9397 826 44.454 826 56.8515Z" fill="#4B8506"/>
<path d="M782 65.2745C782 73.0268 774.9 71.7916 767.108 71.7916C759.316 71.7916 753 79.5439 753 71.7916C753 64.0392 756.135 58.2561 767.108 39.7073C775.73 30.1824 765.541 50.235 782 65.2745Z" fill="#4B8506"/>
<path d="M863 61.1235C863 69.2532 856.195 69.6239 850.077 69.6239C843.959 69.6239 839 77.7536 839 69.6239C839 61.4941 841.462 55.4295 850.077 35.9778C856.846 25.9892 850.077 45.3519 863 61.1235Z" fill="#4B8506"/>
<rect x="739" y="61.2371" width="124" height="29" fill="#4B8506"/>
</g>
<g filter="url(#filter16_d)">
<path d="M1069 66.2021C1069 75.3825 1074.14 73.9197 1079.78 73.9197C1085.43 73.9197 1090 83.1001 1090 73.9197C1090 64.7393 1087.73 57.8909 1079.78 35.9252C1073.54 24.6457 1080.92 48.3922 1069 66.2021Z" fill="#4B8506"/>
<path d="M1080.92 60.5383C1072.41 77.0153 1084.74 88 1089.44 88C1094.14 88 1097.38 73.3537 1097.95 60.5383C1098.52 47.7229 1093.98 41.6203 1089.44 33.0767C1084.9 24.533 1089.44 44.0614 1080.92 60.5383Z" fill="#4B8506"/>
<path d="M1045.92 67.0565C1037.41 83.8226 1049.74 95 1054.44 95C1059.14 95 1062.38 80.0968 1062.95 67.0565C1063.52 54.0163 1058.98 47.8066 1054.44 39.1131C1049.9 30.4196 1054.44 50.2905 1045.92 67.0565Z" fill="#4B8506"/>
<path d="M1061 58.3142C1061 73.9352 1063 83.4558 1069 83.4558C1075 83.4558 1085 87.7631 1085 72.1421C1071.29 36.3154 1077 60.8283 1069 24.3732C1065.97 10.5453 1061 42.6933 1061 58.3142Z" fill="#4B8506"/>
<path d="M1022 50.0271C1022 65.2522 1024.05 74.5316 1030.18 74.5316C1036.31 74.5316 1045 78.509 1045 63.2838C1039.77 74.3108 1027.62 59.404 1027.62 25.7058C1027.62 8.31905 1022 34.8019 1022 50.0271Z" fill="#4B8506"/>
<path d="M1093 68.2022C1093 77.3826 1098.14 75.9198 1103.78 75.9198C1109.43 75.9198 1114 85.1002 1114 75.9198C1114 66.7394 1111.73 59.891 1103.78 37.9253C1097.54 26.6457 1104.92 50.3923 1093 68.2022Z" fill="#4B8506"/>
<path d="M1031 86.9522C1031 98.3097 1037.52 86.9523 1043.38 86.9523C1049.25 86.9523 1054 98.3097 1054 86.9523C1054 75.5948 1051.64 67.1223 1043.38 39.9477C1036.9 25.9932 1043.38 64.9188 1031 86.9522Z" fill="#4B8506"/>
</g>
<g filter="url(#filter17_d)">
<path d="M977 53.3281C977 62.955 979.03 68.8223 985.105 68.8223C991.18 68.8223 999 74.0462 999 64.4193C985.105 42.3401 987.712 52.5436 980.474 29.9448C977 19.0989 977 43.7013 977 53.3281Z" fill="#4B8506"/>
<path d="M899 66.4881C899 74.8525 904.876 73.5197 911.324 73.5197C917.773 73.5197 923 81.8841 923 73.5197C923 65.1553 920.405 58.9156 911.324 38.9025C904.189 28.6256 912.622 50.2613 899 66.4881Z" fill="#4B8506"/>
<path d="M913.362 62.1481C903.571 76.6016 917.746 86.2373 923.153 86.2373C928.561 86.2373 932.292 73.3897 932.945 62.1481C933.597 50.9065 928.375 45.5533 923.153 38.0589C917.931 30.5645 923.153 47.6946 913.362 62.1481Z" fill="#4B8506"/>
<path d="M876.216 68.1481C866.851 82.6016 880.409 92.2373 885.582 92.2373C890.754 92.2373 894.323 79.3897 894.947 68.1481C895.571 56.9065 890.576 51.5533 885.582 44.0589C880.587 36.5645 885.582 53.6946 876.216 68.1481Z" fill="#4B8506"/>
<path d="M891 60.2209C891 73.6103 893.171 81.7708 899.667 81.7708C906.163 81.7708 917 85.4628 917 72.0734C902.143 41.3648 908.333 62.3758 899.667 31.1286C896.379 19.2761 891 46.8315 891 60.2209Z" fill="#4B8506"/>
<path d="M927 76.8664C927 87.2709 932.386 85.6131 938.297 85.6131C944.208 85.6131 949 96.0175 949 85.6131C949 75.2086 946.622 67.447 938.297 42.5527C931.757 29.7691 939.487 56.6819 927 76.8664Z" fill="#4B8506"/>
<path d="M856 73.2373C856 84.8013 860.202 85.0977 866.575 85.0977C872.947 85.0977 878.113 96.6616 878.113 85.0977C878.113 73.5337 877.474 67.406 868.5 39.7373C863.797 25.2372 869.462 50.8033 856 73.2373Z" fill="#4B8506"/>
</g>
<g filter="url(#filter18_d)">
<path d="M975.93 54.5932C984.87 68.1795 971.928 77.2371 966.99 77.2371C962.053 77.2371 958.647 65.1603 958.051 54.5932C957.455 44.0261 962.223 38.9941 966.99 31.9494C971.758 24.9046 966.99 41.0069 975.93 54.5932Z" fill="#4B8506"/>
<path d="M1010.93 60.075C1019.87 73.3722 1006.93 82.2371 1001.99 82.2371C997.053 82.2371 993.647 70.4172 993.051 60.075C992.455 49.7328 997.223 44.8078 1001.99 37.913C1006.76 31.0181 1001.99 46.7778 1010.93 60.075Z" fill="#4B8506"/>
<path d="M996 52.8515C996 65.2491 993.996 72.8051 988 72.8051C982.004 72.8051 972 76.2236 972 63.826C985.714 35.3921 980 54.8468 988 25.9142C991.035 14.9397 996 40.4539 996 52.8515Z" fill="#4B8506"/>
<path d="M964 61.2745C964 69.0268 958.614 67.7916 952.703 67.7916C946.792 67.7916 942 75.5439 942 67.7916C942 60.0392 944.378 54.2561 952.703 35.7073C959.243 26.1824 951.514 46.235 964 61.2745Z" fill="#4B8506"/>
<path d="M1029 64.7495C1029 72.5964 1022.48 64.7495 1016.62 64.7495C1010.75 64.7495 1006 72.5965 1006 64.7495C1006 56.9025 1008.36 51.0488 1016.62 32.2736C1023.1 22.6323 1016.62 49.5264 1029 64.7495Z" fill="#4B8506"/>
</g>
<g filter="url(#filter19_d)">
<path d="M1027.03 63.5704L942 62.2371V82.2371L1037 79.1121L1027.03 63.5704Z" fill="#4B8506"/>
</g>
<path d="M972 87.319C972 97.2402 969.416 103.779 961.684 103.779C953.952 103.779 944 109.162 944 99.2412C947.111 77.8914 958.899 87.3327 968.111 64.0431C972.532 52.8656 970.353 78.0709 972 87.319Z" fill="#3E680C"/>
<path d="M958 77.1482C958 87.4467 955.232 93.7233 946.947 93.7233C938.663 93.7233 928 99.3117 928 89.0132C946.947 65.3936 943.393 76.3089 953.263 52.1335C958 40.5308 958 66.8497 958 77.1482Z" fill="#3E680C"/>
<path d="M893 90.7013C893 99.6777 900.59 98.2474 908.919 98.2474C917.248 98.2474 924 107.224 924 98.2474C924 89.271 920.649 82.5748 908.919 61.0973C899.703 50.0683 910.595 73.2872 893 90.7013Z" fill="#3E680C"/>
<path d="M912.815 87.6923C900.428 103.441 915.058 111.237 921.899 111.237C928.74 111.237 937.589 97.4523 934.286 84.9898C930.983 72.5273 926.854 63.1949 926.854 53.2793C926.854 43.3638 925.202 71.944 912.815 87.6923Z" fill="#3E680C"/>
<path d="M862.51 91.1612C850.558 106.807 865.403 117.237 872.004 117.237C878.605 117.237 883.16 103.33 883.956 91.1612C884.753 78.9925 874.462 73.3314 868.088 65.219C861.714 57.1065 874.462 75.5157 862.51 91.1612Z" fill="#3E680C"/>
<path d="M882 83.1531C882 97.7871 884.025 91.1808 892.5 91.1808C900.976 91.1808 903 100.013 903 87.6479C903 80.9549 899.769 88.8254 888.462 54.6736C884.172 41.7195 882 68.5191 882 83.1531Z" fill="#3E680C"/>
<path d="M927 92.7014C927 101.678 934.59 100.248 942.919 100.248C951.248 100.248 958 109.224 958 100.248C958 91.2711 954.649 84.5749 942.919 63.0974C933.703 52.0684 944.595 75.2873 927 92.7014Z" fill="#3E680C"/>
<path d="M842 87.3064C842 96.6556 849.089 97.0818 855.462 97.0818C861.834 97.0818 867 106.431 867 97.0818C867 87.7327 864.436 80.7583 855.462 58.3889C848.41 46.9019 855.462 69.1691 842 87.3064Z" fill="#3E680C"/>
<rect width="130" height="34" transform="matrix(-1 0 0 1 972 87.2371)" fill="#3E680C"/>
<path d="M967 78.5254C967 87.0937 969.953 92.7407 978.79 92.7407C987.626 92.7407 999 97.3901 999 88.8219C995.445 70.3834 981.972 78.5372 971.445 58.4235C966.392 48.7702 968.882 70.5384 967 78.5254Z" fill="#3E680C"/>
<path d="M984 70.2706C984 79.2258 987.138 84.6838 996.526 84.6838C1005.92 84.6838 1018 89.5432 1018 80.588C996.526 60.0492 1000.55 69.5408 989.368 48.5187C984 38.4294 984 61.3154 984 70.2706Z" fill="#3E680C"/>
<path d="M1058 81.2996C1058 88.8479 1049.43 87.6452 1040.03 87.6452C1030.62 87.6452 1023 95.1935 1023 87.6452C1023 80.0968 1026.78 74.4659 1040.03 56.4052C1050.43 47.1309 1038.14 66.6559 1058 81.2996Z" fill="#3E680C"/>
<path d="M1035.47 78.987C1049.69 92.373 1032.9 99 1025.04 99C1017.19 99 1007.03 87.2831 1010.82 76.6899C1014.61 66.0968 1019.35 58.1642 1019.35 49.736C1019.35 41.3078 1021.25 65.601 1035.47 78.987Z" fill="#3E680C"/>
<path d="M1093.62 82.3044C1107.87 95.9218 1090.17 105 1082.3 105C1074.43 105 1069 92.8956 1068.05 82.3044C1067.1 71.7131 1079.37 66.7859 1086.97 59.7251C1094.57 52.6642 1079.37 68.687 1093.62 82.3044Z" fill="#3E680C"/>
<path d="M1072 74.7205C1072 86.9722 1069.69 81.4414 1060 81.4414C1050.31 81.4414 1048 88.8359 1048 78.4836C1048 72.8801 1051.69 79.4694 1064.62 50.8772C1069.52 40.0318 1072 62.4688 1072 74.7205Z" fill="#3E680C"/>
<path d="M1020 83.2996C1020 90.8479 1011.19 89.6452 1001.51 89.6452C991.841 89.6452 984 97.1936 984 89.6452C984 82.0969 987.892 76.4659 1001.51 58.4053C1012.22 49.131 999.568 68.6559 1020 83.2996Z" fill="#3E680C"/>
<path d="M1117 78.8865C1117 87.0162 1109.06 87.3868 1101.92 87.3868C1094.79 87.3868 1089 95.5165 1089 87.3868C1089 79.2571 1091.87 73.1925 1101.92 53.7408C1109.82 43.7521 1101.92 63.1149 1117 78.8865Z" fill="#3E680C"/>
<rect x="967" y="79" width="150" height="29" fill="#3E680C"/>
<path d="M844 87.7264C844 97.422 841.693 103.812 834.79 103.812C827.886 103.812 819 109.073 819 99.3776C821.778 78.513 832.303 87.7397 840.528 64.9794C844.475 54.0559 842.529 78.6884 844 87.7264Z" fill="#3E680C"/>
<path d="M831 77.5415C831 87.6161 828.509 93.7563 821.053 93.7563C813.597 93.7563 804 99.2232 804 89.1486C821.053 66.0424 817.854 76.7204 826.737 53.0706C831 41.7202 831 67.4669 831 77.5415Z" fill="#3E680C"/>
<path d="M772 90.2257C772 98.7941 778.855 97.4289 786.378 97.4289C793.901 97.4289 800 105.997 800 97.4289C800 88.8605 796.973 82.4686 786.378 61.9673C778.054 51.4397 787.892 73.6032 772 90.2257Z" fill="#3E680C"/>
<path d="M790.458 87.4772C778.989 102.701 792.535 110.237 798.869 110.237C805.204 110.237 813.398 96.9119 810.339 84.8648C807.28 72.8177 803.457 63.7964 803.457 54.2113C803.457 44.6263 801.928 72.2539 790.458 87.4772Z" fill="#3E680C"/>
<path d="M744.99 91.127C734.417 106.193 747.549 116.237 753.388 116.237C759.228 116.237 763.257 102.845 763.961 91.127C764.666 79.4091 755.563 73.9577 749.924 66.1456C744.285 58.3336 755.563 76.061 744.99 91.127Z" fill="#3E680C"/>
<path d="M762 82.6687C762 96.622 763.735 90.3231 771 90.3231C778.265 90.3231 780 98.7446 780 86.9544C780 80.5727 777.231 88.0772 767.539 55.5138C763.862 43.1622 762 68.7154 762 82.6687Z" fill="#3E680C"/>
<path d="M803 92.9637C803 101.736 809.855 100.338 817.378 100.338C824.901 100.338 831 109.111 831 100.338C831 91.5659 827.973 85.0218 817.378 64.0324C809.054 53.2542 818.892 75.9453 803 92.9637Z" fill="#3E680C"/>
<path d="M726 87.6093C726 96.7553 732.522 97.1723 738.385 97.1723C744.247 97.1723 749 106.318 749 97.1723C749 88.0263 746.641 81.2036 738.385 59.3204C731.897 48.0832 738.385 69.8663 726 87.6093Z" fill="#3E680C"/>
<rect width="118" height="33" transform="matrix(-1 0 0 1 844 87.2371)" fill="#3E680C"/>
<g filter="url(#filter20_d)">
<rect x="3.00006" y="103" width="1442" height="41" fill="#3E680C"/>
</g>
<g filter="url(#filter21_d)">
<path d="M327.5 42C341 59 338.627 83.0396 322 94C305.372 104.96 284.092 100.104 271.5 81C254.5 52.5 260 38.197 274 28C290.812 15.7543 306.5 20.5 327.5 42Z" fill="#0B0A0A"/>
<path d="M298.211 62.8145C318.535 85.4292 322.397 88.1387 312.59 93.6242C303.658 99.6407 287.44 95.7876 278.4 84.13C268.33 69.1798 266.969 63.7728 276 57C287.462 48.4027 285.346 48.5 298.211 62.8145Z" fill="#DF2015"/>
<path d="M300.424 61.4312C320.143 84.5753 322.317 88.7617 329.054 79.7697C336.202 71.7143 334.534 55.1279 324.179 44.6218C310.696 32.6579 306.41 29.9478 298.5 38C288.458 48.2214 287.942 46.7816 300.424 61.4312Z" fill="#DF2015"/>
<circle cx="273.5" cy="47" r="6" fill="white"/>
<circle cx="288.5" cy="34" r="6" fill="white"/>
<circle cx="275" cy="42.5" r="3.5" fill="#0B0A0A"/>
<circle cx="290" cy="29.5" r="3.5" fill="#0B0A0A"/>
<path d="M271 35.28C271 37.213 262.941 28.7434 253 28.7434C243.058 28.7434 245 42.7434 242 44.2434C236.5 44.2434 243.058 25.28 253 25.28C262.941 25.28 275.5 35.28 271 35.28Z" fill="#0B0A0A"/>
<path d="M280.2 12.9486C278.839 20.56 281.375 31.9518 278.376 31.4159C275.888 30.9711 275.394 19.9442 276.754 12.3328C278.115 4.72145 291.857 0.302232 292.647 2.98316C294.229 8.34501 281.56 5.33724 280.2 12.9486Z" fill="#0B0A0A"/>
<path d="M326.5 66C326.5 69.3137 323.813 71.5 320.5 71.5C317.186 71.5 314.5 70.3137 314.5 67C314.5 63.6863 317.186 61 320.5 61C323.813 61 326.5 62.6863 326.5 66Z" fill="#0B0A0A"/>
<path d="M300.469 77.0305C303.279 78.7876 303.708 82.2244 301.951 85.0339C300.193 87.8434 297.763 89.4918 294.954 87.7347C292.144 85.9775 291.291 82.2756 293.048 79.4661C294.806 76.6566 297.66 75.2733 300.469 77.0305Z" fill="#0B0A0A"/>
<path d="M289.88 62.5703C293.466 65.5993 293.377 70.5052 290.348 74.0917C287.319 77.6782 283.58 79.5012 279.993 76.4723C276.407 73.4433 275.955 68.0804 278.984 64.4939C282.013 60.9074 286.293 59.5414 289.88 62.5703Z" fill="#0B0A0A"/>
<path d="M318.5 49.1429C318.5 53.8767 314.694 57 310 57C305.305 57 301.5 55.3053 301.5 50.5714C301.5 45.8376 305.305 42 310 42C314.694 42 318.5 44.409 318.5 49.1429Z" fill="#0B0A0A"/>
<path d="M315 26.5C312.417 29.7386 314.086 32.3925 309.236 31.083C307.725 29.8779 308.593 26.2755 311.175 23.0369C313.758 19.7982 319.66 18.2916 321.172 19.4967C323.29 25.6622 317.582 23.2614 315 26.5Z" fill="#0B0A0A"/>
<path d="M260.217 67.3927C264.244 66.4231 264.557 63.3036 267.58 67.3162C268.033 69.1955 265.135 71.5049 261.108 72.4745C257.081 73.4441 253.452 71.8793 253 70C253 64.5 256.19 68.3623 260.217 67.3927Z" fill="#0B0A0A"/>
<path d="M274.501 82.5153C276.08 85.6632 274.514 84.4949 272.46 88.3481C270.405 92.2013 275.609 94.2338 271.491 95.4395C268.292 96.3761 264.513 90.0889 266.567 86.2357C268.621 82.3825 271.491 76.5154 274.501 82.5153Z" fill="#0B0A0A"/>
<path d="M325.445 43.5845C326.376 46.2676 328.276 43.7158 332.402 42.2849C336.527 40.8541 337.727 46.3098 339.557 42.4296C340.98 39.4151 335.356 34.7049 331.23 36.1357C327.105 37.5666 322.395 39.4317 325.445 43.5845Z" fill="#0B0A0A"/>
<path d="M292.268 95.4869C294.918 97.375 292.281 97.9657 292.268 102C292.256 106.034 295.11 106.736 292.268 109.5C290.061 111.647 286.987 108.534 287 104.5C287.012 100.466 287.218 91.8879 292.268 95.4869Z" fill="#0B0A0A"/>
<path d="M334.587 61.3084C335.925 64.2746 337.017 61.8022 340.976 62.5743C344.936 63.3464 344.736 66.2499 348 64C350.535 62.2521 348.412 58.6639 344.453 57.8918C340.493 57.1197 332.039 55.6547 334.587 61.3084Z" fill="#0B0A0A"/>
</g>
<defs>
<filter id="filter0_d" x="236" y="30" width="145" height="71" filterUnits="userSpaceOnUse" color-interpolation-filters="sRGB">
<feFlood flood-opacity="0" result="BackgroundImageFix"/>
<feColorMatrix in="SourceAlpha" type="matrix" values="0 0 0 0 0 0 0 0 0 0 0 0 0 0 0 0 0 0 127 0"/>
<feOffset dx="2" dy="4"/>
<feGaussianBlur stdDeviation="2"/>
<feColorMatrix type="matrix" values="0 0 0 0 0 0 0 0 0 0 0 0 0 0 0 0 0 0 0.25 0"/>
<feBlend mode="normal" in2="BackgroundImageFix" result="effect1_dropShadow"/>
<feBlend mode="normal" in="SourceGraphic" in2="effect1_dropShadow" result="shape"/>
</filter>
<filter id="filter1_d" x="0" y="27" width="88" height="84" filterUnits="userSpaceOnUse" color-interpolation-filters="sRGB">
<feFlood flood-opacity="0" result="BackgroundImageFix"/>
<feColorMatrix in="SourceAlpha" type="matrix" values="0 0 0 0 0 0 0 0 0 0 0 0 0 0 0 0 0 0 127 0"/>
<feOffset dx="2" dy="4"/>
<feGaussianBlur stdDeviation="2"/>
<feColorMatrix type="matrix" values="0 0 0 0 0 0 0 0 0 0 0 0 0 0 0 0 0 0 0.25 0"/>
<feBlend mode="normal" in2="BackgroundImageFix" result="effect1_dropShadow"/>
<feBlend mode="normal" in="SourceGraphic" in2="effect1_dropShadow" result="shape"/>
</filter>
<filter id="filter2_d" x="100" y="30.0001" width="151" height="73" filterUnits="userSpaceOnUse" color-interpolation-filters="sRGB">
<feFlood flood-opacity="0" result="BackgroundImageFix"/>
<feColorMatrix in="SourceAlpha" type="matrix" values="0 0 0 0 0 0 0 0 0 0 0 0 0 0 0 0 0 0 127 0"/>
<feOffset dx="2" dy="4"/>
<feGaussianBlur stdDeviation="2"/>
<feColorMatrix type="matrix" values="0 0 0 0 0 0 0 0 0 0 0 0 0 0 0 0 0 0 0.25 0"/>
<feBlend mode="normal" in2="BackgroundImageFix" result="effect1_dropShadow"/>
<feBlend mode="normal" in="SourceGraphic" in2="effect1_dropShadow" result="shape"/>
</filter>
<filter id="filter3_d" x="70.0001" y="26" width="95" height="67" filterUnits="userSpaceOnUse" color-interpolation-filters="sRGB">
<feFlood flood-opacity="0" result="BackgroundImageFix"/>
<feColorMatrix in="SourceAlpha" type="matrix" values="0 0 0 0 0 0 0 0 0 0 0 0 0 0 0 0 0 0 127 0"/>
<feOffset dx="2" dy="4"/>
<feGaussianBlur stdDeviation="2"/>
<feColorMatrix type="matrix" values="0 0 0 0 0 0 0 0 0 0 0 0 0 0 0 0 0 0 0.25 0"/>
<feBlend mode="normal" in2="BackgroundImageFix" result="effect1_dropShadow"/>
<feBlend mode="normal" in="SourceGraphic" in2="effect1_dropShadow" result="shape"/>
</filter>
<filter id="filter4_d" x="62.0001" y="65" width="103" height="28" filterUnits="userSpaceOnUse" color-interpolation-filters="sRGB">
<feFlood flood-opacity="0" result="BackgroundImageFix"/>
<feColorMatrix in="SourceAlpha" type="matrix" values="0 0 0 0 0 0 0 0 0 0 0 0 0 0 0 0 0 0 127 0"/>
<feOffset dx="2" dy="4"/>
<feGaussianBlur stdDeviation="2"/>
<feColorMatrix type="matrix" values="0 0 0 0 0 0 0 0 0 0 0 0 0 0 0 0 0 0 0.25 0"/>
<feBlend mode="normal" in2="BackgroundImageFix" result="effect1_dropShadow"/>
<feBlend mode="normal" in="SourceGraphic" in2="effect1_dropShadow" result="shape"/>
</filter>
<filter id="filter5_d" x="610" y="27.2371" width="132" height="71" filterUnits="userSpaceOnUse" color-interpolation-filters="sRGB">
<feFlood flood-opacity="0" result="BackgroundImageFix"/>
<feColorMatrix in="SourceAlpha" type="matrix" values="0 0 0 0 0 0 0 0 0 0 0 0 0 0 0 0 0 0 127 0"/>
<feOffset dx="2" dy="4"/>
<feGaussianBlur stdDeviation="2"/>
<feColorMatrix type="matrix" values="0 0 0 0 0 0 0 0 0 0 0 0 0 0 0 0 0 0 0.25 0"/>
<feBlend mode="normal" in2="BackgroundImageFix" result="effect1_dropShadow"/>
<feBlend mode="normal" in="SourceGraphic" in2="effect1_dropShadow" result="shape"/>
</filter>
<filter id="filter6_d" x="359" y="20" width="100" height="83" filterUnits="userSpaceOnUse" color-interpolation-filters="sRGB">
<feFlood flood-opacity="0" result="BackgroundImageFix"/>
<feColorMatrix in="SourceAlpha" type="matrix" values="0 0 0 0 0 0 0 0 0 0 0 0 0 0 0 0 0 0 127 0"/>
<feOffset dx="2" dy="4"/>
<feGaussianBlur stdDeviation="2"/>
<feColorMatrix type="matrix" values="0 0 0 0 0 0 0 0 0 0 0 0 0 0 0 0 0 0 0.25 0"/>
<feBlend mode="normal" in2="BackgroundImageFix" result="effect1_dropShadow"/>
<feBlend mode="normal" in="SourceGraphic" in2="effect1_dropShadow" result="shape"/>
</filter>
<filter id="filter7_d" x="474" y="27.2373" width="151" height="73" filterUnits="userSpaceOnUse" color-interpolation-filters="sRGB">
<feFlood flood-opacity="0" result="BackgroundImageFix"/>
<feColorMatrix in="SourceAlpha" type="matrix" values="0 0 0 0 0 0 0 0 0 0 0 0 0 0 0 0 0 0 127 0"/>
<feOffset dx="2" dy="4"/>
<feGaussianBlur stdDeviation="2"/>
<feColorMatrix type="matrix" values="0 0 0 0 0 0 0 0 0 0 0 0 0 0 0 0 0 0 0.25 0"/>
<feBlend mode="normal" in2="BackgroundImageFix" result="effect1_dropShadow"/>
<feBlend mode="normal" in="SourceGraphic" in2="effect1_dropShadow" result="shape"/>
</filter>
<filter id="filter8_d" x="444" y="23.237" width="95" height="67" filterUnits="userSpaceOnUse" color-interpolation-filters="sRGB">
<feFlood flood-opacity="0" result="BackgroundImageFix"/>
<feColorMatrix in="SourceAlpha" type="matrix" values="0 0 0 0 0 0 0 0 0 0 0 0 0 0 0 0 0 0 127 0"/>
<feOffset dx="2" dy="4"/>
<feGaussianBlur stdDeviation="2"/>
<feColorMatrix type="matrix" values="0 0 0 0 0 0 0 0 0 0 0 0 0 0 0 0 0 0 0.25 0"/>
<feBlend mode="normal" in2="BackgroundImageFix" result="effect1_dropShadow"/>
<feBlend mode="normal" in="SourceGraphic" in2="effect1_dropShadow" result="shape"/>
</filter>
<filter id="filter9_d" x="436" y="62.2371" width="103" height="28" filterUnits="userSpaceOnUse" color-interpolation-filters="sRGB">
<feFlood flood-opacity="0" result="BackgroundImageFix"/>
<feColorMatrix in="SourceAlpha" type="matrix" values="0 0 0 0 0 0 0 0 0 0 0 0 0 0 0 0 0 0 127 0"/>
<feOffset dx="2" dy="4"/>
<feGaussianBlur stdDeviation="2"/>
<feColorMatrix type="matrix" values="0 0 0 0 0 0 0 0 0 0 0 0 0 0 0 0 0 0 0.25 0"/>
<feBlend mode="normal" in2="BackgroundImageFix" result="effect1_dropShadow"/>
<feBlend mode="normal" in="SourceGraphic" in2="effect1_dropShadow" result="shape"/>
</filter>
<filter id="filter10_d" x="1098" y="30" width="145" height="71" filterUnits="userSpaceOnUse" color-interpolation-filters="sRGB">
<feFlood flood-opacity="0" result="BackgroundImageFix"/>
<feColorMatrix in="SourceAlpha" type="matrix" values="0 0 0 0 0 0 0 0 0 0 0 0 0 0 0 0 0 0 127 0"/>
<feOffset dx="2" dy="4"/>
<feGaussianBlur stdDeviation="2"/>
<feColorMatrix type="matrix" values="0 0 0 0 0 0 0 0 0 0 0 0 0 0 0 0 0 0 0.25 0"/>
<feBlend mode="normal" in2="BackgroundImageFix" result="effect1_dropShadow"/>
<feBlend mode="normal" in="SourceGraphic" in2="effect1_dropShadow" result="shape"/>
</filter>
<filter id="filter11_d" x="1376" y="27" width="75" height="80" filterUnits="userSpaceOnUse" color-interpolation-filters="sRGB">
<feFlood flood-opacity="0" result="BackgroundImageFix"/>
<feColorMatrix in="SourceAlpha" type="matrix" values="0 0 0 0 0 0 0 0 0 0 0 0 0 0 0 0 0 0 127 0"/>
<feOffset dx="2" dy="4"/>
<feGaussianBlur stdDeviation="2"/>
<feColorMatrix type="matrix" values="0 0 0 0 0 0 0 0 0 0 0 0 0 0 0 0 0 0 0.25 0"/>
<feBlend mode="normal" in2="BackgroundImageFix" result="effect1_dropShadow"/>
<feBlend mode="normal" in="SourceGraphic" in2="effect1_dropShadow" result="shape"/>
</filter>
<filter id="filter12_d" x="1228" y="30.0001" width="151" height="73" filterUnits="userSpaceOnUse" color-interpolation-filters="sRGB">
<feFlood flood-opacity="0" result="BackgroundImageFix"/>
<feColorMatrix in="SourceAlpha" type="matrix" values="0 0 0 0 0 0 0 0 0 0 0 0 0 0 0 0 0 0 127 0"/>
<feOffset dx="2" dy="4"/>
<feGaussianBlur stdDeviation="2"/>
<feColorMatrix type="matrix" values="0 0 0 0 0 0 0 0 0 0 0 0 0 0 0 0 0 0 0.25 0"/>
<feBlend mode="normal" in2="BackgroundImageFix" result="effect1_dropShadow"/>
<feBlend mode="normal" in="SourceGraphic" in2="effect1_dropShadow" result="shape"/>
</filter>
<filter id="filter13_d" x="1314" y="26" width="95" height="67" filterUnits="userSpaceOnUse" color-interpolation-filters="sRGB">
<feFlood flood-opacity="0" result="BackgroundImageFix"/>
<feColorMatrix in="SourceAlpha" type="matrix" values="0 0 0 0 0 0 0 0 0 0 0 0 0 0 0 0 0 0 127 0"/>
<feOffset dx="2" dy="4"/>
<feGaussianBlur stdDeviation="2"/>
<feColorMatrix type="matrix" values="0 0 0 0 0 0 0 0 0 0 0 0 0 0 0 0 0 0 0.25 0"/>
<feBlend mode="normal" in2="BackgroundImageFix" result="effect1_dropShadow"/>
<feBlend mode="normal" in="SourceGraphic" in2="effect1_dropShadow" result="shape"/>
</filter>
<filter id="filter14_d" x="1314" y="65" width="103" height="28" filterUnits="userSpaceOnUse" color-interpolation-filters="sRGB">
<feFlood flood-opacity="0" result="BackgroundImageFix"/>
<feColorMatrix in="SourceAlpha" type="matrix" values="0 0 0 0 0 0 0 0 0 0 0 0 0 0 0 0 0 0 127 0"/>
<feOffset dx="2" dy="4"/>
<feGaussianBlur stdDeviation="2"/>
<feColorMatrix type="matrix" values="0 0 0 0 0 0 0 0 0 0 0 0 0 0 0 0 0 0 0.25 0"/>
<feBlend mode="normal" in2="BackgroundImageFix" result="effect1_dropShadow"/>
<feBlend mode="normal" in="SourceGraphic" in2="effect1_dropShadow" result="shape"/>
</filter>
<filter id="filter15_d" x="737" y="27.2371" width="132" height="71" filterUnits="userSpaceOnUse" color-interpolation-filters="sRGB">
<feFlood flood-opacity="0" result="BackgroundImageFix"/>
<feColorMatrix in="SourceAlpha" type="matrix" values="0 0 0 0 0 0 0 0 0 0 0 0 0 0 0 0 0 0 127 0"/>
<feOffset dx="2" dy="4"/>
<feGaussianBlur stdDeviation="2"/>
<feColorMatrix type="matrix" values="0 0 0 0 0 0 0 0 0 0 0 0 0 0 0 0 0 0 0.25 0"/>
<feBlend mode="normal" in2="BackgroundImageFix" result="effect1_dropShadow"/>
<feBlend mode="normal" in="SourceGraphic" in2="effect1_dropShadow" result="shape"/>
</filter>
<filter id="filter16_d" x="1020" y="20" width="100" height="83" filterUnits="userSpaceOnUse" color-interpolation-filters="sRGB">
<feFlood flood-opacity="0" result="BackgroundImageFix"/>
<feColorMatrix in="SourceAlpha" type="matrix" values="0 0 0 0 0 0 0 0 0 0 0 0 0 0 0 0 0 0 127 0"/>
<feOffset dx="2" dy="4"/>
<feGaussianBlur stdDeviation="2"/>
<feColorMatrix type="matrix" values="0 0 0 0 0 0 0 0 0 0 0 0 0 0 0 0 0 0 0.25 0"/>
<feBlend mode="normal" in2="BackgroundImageFix" result="effect1_dropShadow"/>
<feBlend mode="normal" in="SourceGraphic" in2="effect1_dropShadow" result="shape"/>
</filter>
<filter id="filter17_d" x="854" y="27.2373" width="151" height="73" filterUnits="userSpaceOnUse" color-interpolation-filters="sRGB">
<feFlood flood-opacity="0" result="BackgroundImageFix"/>
<feColorMatrix in="SourceAlpha" type="matrix" values="0 0 0 0 0 0 0 0 0 0 0 0 0 0 0 0 0 0 127 0"/>
<feOffset dx="2" dy="4"/>
<feGaussianBlur stdDeviation="2"/>
<feColorMatrix type="matrix" values="0 0 0 0 0 0 0 0 0 0 0 0 0 0 0 0 0 0 0.25 0"/>
<feBlend mode="normal" in2="BackgroundImageFix" result="effect1_dropShadow"/>
<feBlend mode="normal" in="SourceGraphic" in2="effect1_dropShadow" result="shape"/>
</filter>
<filter id="filter18_d" x="940" y="23.237" width="95" height="67" filterUnits="userSpaceOnUse" color-interpolation-filters="sRGB">
<feFlood flood-opacity="0" result="BackgroundImageFix"/>
<feColorMatrix in="SourceAlpha" type="matrix" values="0 0 0 0 0 0 0 0 0 0 0 0 0 0 0 0 0 0 127 0"/>
<feOffset dx="2" dy="4"/>
<feGaussianBlur stdDeviation="2"/>
<feColorMatrix type="matrix" values="0 0 0 0 0 0 0 0 0 0 0 0 0 0 0 0 0 0 0.25 0"/>
<feBlend mode="normal" in2="BackgroundImageFix" result="effect1_dropShadow"/>
<feBlend mode="normal" in="SourceGraphic" in2="effect1_dropShadow" result="shape"/>
</filter>
<filter id="filter19_d" x="940" y="62.2371" width="103" height="28" filterUnits="userSpaceOnUse" color-interpolation-filters="sRGB">
<feFlood flood-opacity="0" result="BackgroundImageFix"/>
<feColorMatrix in="SourceAlpha" type="matrix" values="0 0 0 0 0 0 0 0 0 0 0 0 0 0 0 0 0 0 127 0"/>
<feOffset dx="2" dy="4"/>
<feGaussianBlur stdDeviation="2"/>
<feColorMatrix type="matrix" values="0 0 0 0 0 0 0 0 0 0 0 0 0 0 0 0 0 0 0.25 0"/>
<feBlend mode="normal" in2="BackgroundImageFix" result="effect1_dropShadow"/>
<feBlend mode="normal" in="SourceGraphic" in2="effect1_dropShadow" result="shape"/>
</filter>
<filter id="filter20_d" x="1.00006" y="103" width="1450" height="49" filterUnits="userSpaceOnUse" color-interpolation-filters="sRGB">
<feFlood flood-opacity="0" result="BackgroundImageFix"/>
<feColorMatrix in="SourceAlpha" type="matrix" values="0 0 0 0 0 0 0 0 0 0 0 0 0 0 0 0 0 0 127 0"/>
<feOffset dx="2" dy="4"/>
<feGaussianBlur stdDeviation="2"/>
<feColorMatrix type="matrix" values="0 0 0 0 0 0 0 0 0 0 0 0 0 0 0 0 0 0 0.25 0"/>
<feBlend mode="normal" in2="BackgroundImageFix" result="effect1_dropShadow"/>
<feBlend mode="normal" in="SourceGraphic" in2="effect1_dropShadow" result="shape"/>
</filter>
<filter id="filter21_d" x="238" y="0" width="117.864" height="121.268" filterUnits="userSpaceOnUse" color-interpolation-filters="sRGB">
<feFlood flood-opacity="0" result="BackgroundImageFix"/>
<feColorMatrix in="SourceAlpha" type="matrix" values="0 0 0 0 0 0 0 0 0 0 0 0 0 0 0 0 0 0 127 0"/>
<feOffset dx="2" dy="4"/>
<feGaussianBlur stdDeviation="2"/>
<feColorMatrix type="matrix" values="0 0 0 0 0 0 0 0 0 0 0 0 0 0 0 0 0 0 0.25 0"/>
<feBlend mode="normal" in2="BackgroundImageFix" result="effect1_dropShadow"/>
<feBlend mode="normal" in="SourceGraphic" in2="effect1_dropShadow" result="shape"/>
</filter>
</defs>
</svg>
