<svg width="304" height="505" viewBox="0 0 304 505" fill="none" xmlns="http://www.w3.org/2000/svg">
<path d="M138.287 335.904C126.224 337.269 120.656 341.824 94.0477 337.351C71.1987 330.998 60.2782 315.885 34.6131 312.688C37.469 303.856 81.4266 297.942 104.39 305.368C127.353 312.793 141.143 327.072 138.287 335.904Z" fill="#4B8506"/>
<path d="M147.043 409.152C159.054 409.266 164.999 413.181 190.729 406.066C212.568 397.484 221.775 381.497 246.707 375.734C242.996 367.333 199.132 365.995 177.29 375.644C155.447 385.293 143.332 400.751 147.043 409.152Z" fill="#4B8506"/>
<path d="M137.722 502.433C137.722 502.433 152.158 459.204 152.667 440.07C153.33 415.12 147.33 409.894 136.762 362.403C131.512 338.814 139.031 297.342 151.548 276.922" stroke="#4B8506" stroke-width="10"/>
<path d="M239.681 98.095C268.626 93.8179 293.972 103.083 296.293 118.79C298.614 134.496 277.031 150.696 248.086 154.973C219.141 159.25 193.795 149.985 191.474 134.279C189.154 118.572 210.736 102.372 239.681 98.095Z" fill="#510909"/>
<ellipse cx="86.7399" cy="86.3257" rx="28.7479" ry="52.9783" transform="rotate(-45.6925 86.7399 86.3257)" fill="#510909"/>
<ellipse cx="236.706" cy="177.75" rx="28.7479" ry="52.9783" transform="rotate(-65.745 236.706 177.75)" fill="#510909"/>
<ellipse cx="128.426" cy="60.825" rx="28.7479" ry="52.9783" transform="rotate(-8.70269 128.426 60.825)" fill="#510909"/>
<ellipse cx="182.12" cy="59.5745" rx="28.7479" ry="52.9783" transform="rotate(19.7388 182.12 59.5745)" fill="#510909"/>
<path d="M62.6907 104.043C91.6842 107.977 113.458 123.919 111.324 139.652C109.189 155.385 83.955 164.951 54.9615 161.017C25.968 157.084 4.19433 141.141 6.32869 125.409C8.46306 109.676 33.6972 100.11 62.6907 104.043Z" fill="#510909"/>
<path d="M56.3554 159.348C82.4896 146.191 109.463 147.022 116.602 161.204C123.742 175.385 108.343 197.547 82.2087 210.703C56.0744 223.86 29.1009 223.029 21.9617 208.848C14.8225 194.666 30.2211 172.504 56.3554 159.348Z" fill="#510909"/>
<path d="M82.5079 215.288C96.0339 189.343 118.412 174.26 132.491 181.6C146.569 188.94 147.017 215.922 133.491 241.867C119.965 267.812 97.5872 282.895 83.5086 275.555C69.4299 268.215 68.9819 241.233 82.5079 215.288Z" fill="#510909"/>
<path d="M183.199 238.215C165.035 215.277 160.401 188.692 172.848 178.835C185.295 168.979 210.11 179.583 228.274 202.522C246.438 225.46 251.073 252.045 238.626 261.902C226.179 271.758 201.364 261.153 183.199 238.215Z" fill="#510909"/>
<path d="M128.629 239.295C126.087 210.147 136.849 185.399 152.666 184.02C168.483 182.641 183.366 205.152 185.908 234.301C188.449 263.449 177.688 288.197 161.871 289.576C146.054 290.955 131.171 268.444 128.629 239.295Z" fill="#510909"/>
<path d="M203.619 65.9367C224.896 45.8515 250.979 38.9285 261.878 50.4738C272.777 62.0191 264.364 87.6606 243.088 107.746C221.812 127.831 195.728 134.754 184.829 123.209C173.93 111.663 182.343 86.0219 203.619 65.9367Z" fill="#510909"/>
<ellipse cx="106.191" cy="65.2027" rx="28.7479" ry="52.9783" transform="rotate(-28.1426 106.191 65.2027)" fill="#780808"/>
<ellipse cx="157.086" cy="53.9575" rx="28.7479" ry="52.9783" transform="rotate(2.01747 157.086 53.9575)" fill="#780808"/>
<ellipse cx="203.491" cy="71.6728" rx="28.7479" ry="52.9783" transform="rotate(31.8177 203.491 71.6728)" fill="#780808"/>
<ellipse cx="235.784" cy="105.958" rx="28.7479" ry="52.9783" transform="rotate(62.4968 235.784 105.958)" fill="#780808"/>
<ellipse cx="246.953" cy="156.427" rx="28.7479" ry="52.9783" transform="rotate(97.8163 246.953 156.427)" fill="#780808"/>
<ellipse cx="131.649" cy="238.312" rx="28.7479" ry="52.9783" transform="rotate(6.69395 131.649 238.312)" fill="#780808"/>
<ellipse cx="66.0251" cy="105.618" rx="28.7479" ry="52.9783" transform="rotate(-61.4247 66.0251 105.618)" fill="#780808"/>
<ellipse cx="56.5562" cy="160.082" rx="28.7479" ry="52.9783" transform="rotate(-98.2529 56.5562 160.082)" fill="#780808"/>
<ellipse cx="82.1978" cy="214.072" rx="28.7479" ry="52.9783" transform="rotate(-135.761 82.1978 214.072)" fill="#780808"/>
<ellipse cx="181.544" cy="234.523" rx="28.7479" ry="52.9783" transform="rotate(-15.5678 181.544 234.523)" fill="#780808"/>
<ellipse cx="224.7" cy="203.528" rx="28.7479" ry="52.9783" transform="rotate(-52.9593 224.7 203.528)" fill="#780808"/>
<circle cx="156" cy="145" r="90" fill="#EBEBEB"/>
<path d="M120.854 192.354L112.811 102.143H201.189L193.138 192.34L156.946 202.373L120.854 192.354Z" fill="#E44D26"/>
<path d="M157 194.704L186.244 186.596L193.125 109.52H157V194.704Z" fill="#F16529"/>
<path d="M157 142.978H142.359L141.349 131.647H157V120.583H129.257L129.521 123.552L132.241 154.041H157V142.978ZM157 171.711L156.951 171.724L144.63 168.396L143.842 159.573H132.735L134.285 176.945L156.949 183.237L157 183.222V171.711Z" fill="#EBEBEB"/>
<path d="M121.034 77.627H126.656V83.183H131.8V77.627H137.423V94.449H131.8V88.816H126.657V94.449H121.034V77.627V77.627ZM144.816 83.206H139.866V77.627H155.391V83.206H150.439V94.449H144.816V83.206V83.206ZM157.855 77.627H163.717L167.324 83.538L170.927 77.627H176.792V94.449H171.191V86.111L167.324 92.092H167.226L163.356 86.111V94.449H157.854V77.627H157.855ZM179.591 77.627H185.215V88.889H193.122V94.45H179.591V77.627V77.627Z" fill="black"/>
<path d="M156.962 142.978V154.041H170.586L169.302 168.39L156.962 171.721V183.231L179.644 176.945L179.81 175.075L182.41 145.948L182.68 142.978H179.698H156.962ZM156.962 120.583V131.647H183.687L183.908 129.16L184.413 123.552L184.678 120.583H156.962Z" fill="white"/>
</svg>
