<svg width="304" height="725" viewBox="0 0 304 725" fill="none" xmlns="http://www.w3.org/2000/svg">
<path d="M136.287 337.904C124.224 339.269 118.656 343.824 92.0477 339.351C69.1987 332.998 58.2782 317.885 32.6131 314.688C35.469 305.856 79.4266 299.942 102.39 307.368C125.353 314.793 139.143 329.072 136.287 337.904Z" fill="#4B8506"/>
<path d="M145.043 411.152C157.054 411.266 162.999 415.181 188.729 408.066C210.568 399.484 219.775 383.497 244.707 377.734C240.996 369.333 197.132 367.995 175.29 377.644C153.447 387.293 141.332 402.751 145.043 411.152Z" fill="#4B8506"/>
<path d="M135.722 504.433C135.722 504.433 150.158 461.204 150.667 442.07C151.331 417.12 145.331 411.894 134.762 364.403C129.512 340.814 137.031 299.342 149.548 278.922" stroke="#4B8506" stroke-width="10"/>
<path d="M126.287 553.904C114.224 555.269 108.656 559.824 82.0477 555.351C59.1987 548.998 48.2782 533.884 22.6131 530.688C25.4691 521.856 69.4266 515.942 92.39 523.368C115.353 530.793 129.143 545.072 126.287 553.904Z" fill="#4B8506"/>
<path d="M135.043 627.152C147.054 627.266 152.999 631.181 178.729 624.066C200.568 615.484 209.775 599.496 234.707 593.734C230.996 585.333 187.132 583.995 165.29 593.644C143.447 603.293 131.332 618.751 135.043 627.152Z" fill="#4B8506"/>
<path d="M126.5 723.5C126.5 723.5 140.158 677.204 140.667 658.07C141.331 633.12 135.331 627.894 124.762 580.403C119.512 556.814 130 524 136.5 502" stroke="#4B8506" stroke-width="10"/>
<path d="M239.681 98.095C268.626 93.8179 293.972 103.083 296.293 118.79C298.614 134.496 277.031 150.696 248.086 154.973C219.141 159.25 193.795 149.985 191.475 134.279C189.154 118.572 210.737 102.372 239.681 98.095Z" fill="#510909"/>
<ellipse cx="86.74" cy="86.3257" rx="28.7479" ry="52.9783" transform="rotate(-45.6925 86.74 86.3257)" fill="#510909"/>
<ellipse cx="236.706" cy="177.75" rx="28.7479" ry="52.9783" transform="rotate(-65.745 236.706 177.75)" fill="#510909"/>
<ellipse cx="128.426" cy="60.825" rx="28.7479" ry="52.9783" transform="rotate(-8.70269 128.426 60.825)" fill="#510909"/>
<ellipse cx="182.12" cy="59.5745" rx="28.7479" ry="52.9783" transform="rotate(19.7388 182.12 59.5745)" fill="#510909"/>
<path d="M62.6908 104.043C91.6843 107.977 113.458 123.919 111.324 139.652C109.189 155.385 83.9551 164.951 54.9616 161.017C25.968 157.084 4.19439 141.141 6.32875 125.409C8.46311 109.676 33.6972 100.11 62.6908 104.043Z" fill="#510909"/>
<path d="M56.3554 159.348C82.4897 146.191 109.463 147.022 116.602 161.204C123.742 175.385 108.343 197.547 82.2088 210.703C56.0745 223.86 29.101 223.029 21.9618 208.848C14.8226 194.666 30.2211 172.504 56.3554 159.348Z" fill="#510909"/>
<path d="M82.508 215.288C96.034 189.343 118.412 174.26 132.491 181.6C146.569 188.94 147.017 215.922 133.491 241.867C119.965 267.812 97.5873 282.895 83.5086 275.555C69.4299 268.215 68.9819 241.233 82.508 215.288Z" fill="#510909"/>
<path d="M183.2 238.215C165.035 215.277 160.401 188.692 172.848 178.835C185.295 168.979 210.11 179.583 228.274 202.522C246.439 225.46 251.073 252.045 238.626 261.902C226.179 271.758 201.364 261.153 183.2 238.215Z" fill="#510909"/>
<path d="M128.629 239.295C126.087 210.147 136.849 185.399 152.666 184.02C168.483 182.641 183.366 205.152 185.908 234.301C188.449 263.449 177.688 288.197 161.871 289.576C146.054 290.955 131.171 268.444 128.629 239.295Z" fill="#510909"/>
<path d="M203.619 65.9367C224.896 45.8515 250.979 38.9285 261.878 50.4738C272.777 62.0191 264.364 87.6606 243.088 107.746C221.812 127.831 195.728 134.754 184.829 123.209C173.931 111.663 182.343 86.0219 203.619 65.9367Z" fill="#510909"/>
<ellipse cx="106.191" cy="65.2027" rx="28.7479" ry="52.9783" transform="rotate(-28.1426 106.191 65.2027)" fill="#780808"/>
<ellipse cx="157.086" cy="53.9575" rx="28.7479" ry="52.9783" transform="rotate(2.01747 157.086 53.9575)" fill="#780808"/>
<ellipse cx="203.491" cy="71.6728" rx="28.7479" ry="52.9783" transform="rotate(31.8177 203.491 71.6728)" fill="#780808"/>
<ellipse cx="235.784" cy="105.958" rx="28.7479" ry="52.9783" transform="rotate(62.4968 235.784 105.958)" fill="#780808"/>
<ellipse cx="246.953" cy="156.427" rx="28.7479" ry="52.9783" transform="rotate(97.8163 246.953 156.427)" fill="#780808"/>
<ellipse cx="131.649" cy="238.312" rx="28.7479" ry="52.9783" transform="rotate(6.69395 131.649 238.312)" fill="#780808"/>
<ellipse cx="66.0252" cy="105.618" rx="28.7479" ry="52.9783" transform="rotate(-61.4247 66.0252 105.618)" fill="#780808"/>
<ellipse cx="56.5562" cy="160.082" rx="28.7479" ry="52.9783" transform="rotate(-98.2529 56.5562 160.082)" fill="#780808"/>
<ellipse cx="82.1978" cy="214.072" rx="28.7479" ry="52.9783" transform="rotate(-135.761 82.1978 214.072)" fill="#780808"/>
<ellipse cx="181.544" cy="234.523" rx="28.7479" ry="52.9783" transform="rotate(-15.5678 181.544 234.523)" fill="#780808"/>
<ellipse cx="224.7" cy="203.528" rx="28.7479" ry="52.9783" transform="rotate(-52.9593 224.7 203.528)" fill="#780808"/>
<circle cx="156" cy="145" r="90" fill="#EBEBEB"/>
<path d="M158 157.7C165.3 164.8 172.5 169 178.3 169C180.2 169 182 168.6 183.5 167.7C188.7 164.7 190.6 157.2 188.8 146.5C188.5 144.6 188.1 142.7 187.6 140.7C189.6 140.1 191.4 139.5 193.2 138.9C203.3 135 208.9 129.6 208.9 123.7C208.9 117.7 203.3 112.3 193.2 108.5C191.4 107.8 189.6 107.2 187.6 106.7C188.1 104.7 188.5 102.8 188.8 100.9C190.5 90 188.6 82.4 183.4 79.4C181.9 78.5 180.1 78.1 178.2 78.1C172.5 78.1 165.2 82.3 157.9 89.4C150.7 82.3 143.5 78.1 137.7 78.1C135.8 78.1 134 78.5 132.5 79.4C127.3 82.4 125.4 89.9 127.2 100.6C127.5 102.5 127.9 104.4 128.4 106.4C126.4 107 124.6 107.6 122.8 108.2C112.7 112.1 107.1 117.5 107.1 123.4C107.1 129.4 112.7 134.8 122.8 138.6C124.6 139.3 126.4 139.9 128.4 140.4C127.9 142.4 127.5 144.3 127.2 146.2C125.5 156.9 127.4 164.5 132.5 167.4C134 168.3 135.8 168.7 137.7 168.7C143.5 168.9 150.7 164.7 158 157.7V157.7ZM152.4 144.2C154.2 144.3 156.1 144.3 158 144.3C159.9 144.3 161.8 144.3 163.6 144.2C161.8 146.6 159.9 148.8 158 150.9C156.1 148.8 154.2 146.6 152.4 144.2V144.2ZM140 133.9C141 135.6 141.9 137.2 143 138.8C139.9 138.4 137 137.9 134.2 137.3C135.1 134.6 136.1 131.8 137.3 129C138.1 130.6 139 132.3 140 133.9V133.9ZM134.2 109.8C137 109.2 139.9 108.7 143 108.3C142 109.9 141 111.5 140 113.2C139 114.9 138.1 116.5 137.3 118.2C136 115.3 135 112.5 134.2 109.8V109.8ZM139.7 123.5C141 120.8 142.4 118.1 144 115.4C145.5 112.8 147.2 110.2 148.9 107.6C151.9 107.4 154.9 107.3 158 107.3C161.2 107.3 164.2 107.4 167.1 107.6C168.9 110.2 170.5 112.8 172 115.4C173.6 118.1 175 120.8 176.3 123.5C175 126.2 173.6 128.9 172 131.6C170.5 134.2 168.8 136.8 167.1 139.4C164.1 139.6 161.1 139.7 158 139.7C154.8 139.7 151.8 139.6 148.9 139.4C147.1 136.8 145.5 134.2 144 131.6C142.4 128.9 141 126.2 139.7 123.5V123.5ZM178.8 118.1L176.1 113.1C175.1 111.4 174.2 109.8 173.1 108.2C176.2 108.6 179.1 109.1 181.9 109.7C181 112.5 180 115.3 178.8 118.1ZM178.8 128.9C180 131.7 181 134.5 181.9 137.2C179.1 137.8 176.2 138.3 173.1 138.7C174.1 137.1 175.1 135.5 176.1 133.8C177 132.3 177.9 130.6 178.8 128.9ZM181.1 163.6C180.3 164.1 179.3 164.3 178.2 164.3C173.3 164.3 167.2 160.3 161.2 154.3C164.1 151.2 166.9 147.7 169.7 143.8C174.4 143.4 178.9 142.7 183.1 141.7C183.6 143.5 183.9 145.3 184.2 147.1C185.6 155.6 184.5 161.7 181.1 163.6V163.6ZM186.3 110.9C197.5 114.1 204.2 119 204.2 123.5C204.2 127.4 199.6 131.3 191.5 134.4C189.9 135 188.1 135.6 186.3 136.1C185 132 183.4 127.8 181.4 123.5C183.4 119.2 185.1 115 186.3 110.9ZM178.3 82.7C179.4 82.7 180.3 82.9 181.2 83.4C184.5 85.3 185.7 91.3 184.3 99.9C184 101.6 183.6 103.4 183.2 105.3C179 104.4 174.5 103.7 169.8 103.2C167.1 99.3 164.2 95.8 161.3 92.7C167.3 86.8 173.4 82.7 178.3 82.7V82.7ZM163.6 102.8C161.8 102.7 159.9 102.7 158 102.7C156.1 102.7 154.2 102.7 152.4 102.8C154.2 100.4 156.1 98.2 158 96.1C159.9 98.2 161.8 100.5 163.6 102.8ZM134.9 83.4C135.7 82.9 136.7 82.7 137.8 82.7C142.7 82.7 148.8 86.7 154.8 92.7C151.9 95.8 149.1 99.3 146.3 103.2C141.6 103.6 137.1 104.3 132.9 105.3C132.4 103.5 132.1 101.7 131.8 99.9C130.4 91.4 131.5 85.4 134.9 83.4V83.4ZM129.7 136.1C118.5 132.9 111.8 128 111.8 123.5C111.8 119.6 116.4 115.7 124.5 112.6C126.1 112 127.9 111.4 129.7 110.9C131 115 132.6 119.2 134.6 123.5C132.6 127.8 130.9 132.1 129.7 136.1ZM131.8 147.1C132.1 145.4 132.5 143.6 132.9 141.7C137.1 142.6 141.6 143.3 146.3 143.8C149 147.7 151.9 151.2 154.8 154.3C148.8 160.2 142.7 164.3 137.8 164.3C136.7 164.3 135.8 164.1 134.9 163.6C131.5 161.7 130.4 155.6 131.8 147.1V147.1ZM127.6 188.3C129.8 185.6 129.9 182.6 128.7 179.6C127.5 176.6 125 175.2 121.9 175.1C118.2 175 114.4 175.1 110.7 175.1H110V201H113V191.2H117.7C118.3 191.2 118.8 191.4 119.1 191.9L125.1 201.2C125.2 201.4 125.5 201.7 125.7 201.7H129.6C127.2 198 124.9 194.5 122.5 190.9C124.6 190.6 126.4 189.9 127.6 188.3V188.3ZM113 188.1V178.2H114.1C116.4 178.2 118.8 178.1 121.1 178.3C123.8 178.4 125.7 180.5 125.7 183.2C125.7 185.9 123.5 188 120.8 188.1C118.4 188.2 116 188.1 113 188.1V188.1ZM151.7 189.4C150.1 182.4 143.7 180.6 138.8 182.8C135 184.5 133.3 187.8 133.2 191.9C133.1 195 134 197.8 136.4 199.9C139.1 202.3 142.4 202.6 145.8 202C147.7 201.6 149.4 200.7 150.7 199.3C150.2 198.6 149.7 197.9 149.2 197.3C146.4 199.7 143.3 200.5 139.9 198.9C137.7 197.8 136.6 195.1 136.4 193.1H151.9V191.8C152 190.9 151.9 190.1 151.7 189.4V189.4ZM136.6 191C136.3 188 139.3 184.8 142.6 184.8C146.4 184.7 148.8 187 148.9 191H136.6V191ZM167.3 182.3C165.8 182 164.2 181.9 162.7 182C160.3 182.2 158.2 183.3 156.5 185.1C157 185.8 157.4 186.5 158 187.3C158.2 187.1 158.4 186.9 158.6 186.8C160.2 185.3 162.1 184.5 164.4 184.7C166.2 184.8 167.9 185.4 168.4 187.2C168.8 188.6 168.7 190.1 168.8 191.6C168.5 191.6 168.4 191.5 168.3 191.4C165.9 189.4 163.2 189 160.3 189.7C157.6 190.4 155.9 192.5 155.7 195.2C155.5 198.3 156.9 200.6 159.6 201.7C161.3 202.4 163.2 202.4 165 202C166.4 201.7 167 200.9 169 199.8V201.1H171.8C171.8 197.1 171.9 192.2 171.8 187.6C171.8 184.7 170.1 182.9 167.3 182.3ZM168.7 194.9C168.6 195.2 168.7 195.5 168.7 195.8C168.7 197.9 168.2 198.6 166.2 199.4C164.8 199.9 163.3 200.1 161.8 199.6C160.1 199.1 158.9 197.6 158.9 195.9C158.8 194.2 159.9 192.5 161.6 192C163.9 191.2 166 191.7 167.9 193.1C168.5 193.6 168.9 194.1 168.7 194.9V194.9ZM184.3 185C186.9 184.2 189.3 184.7 191.1 186.9L191.4 187.1C192.1 186.5 192.7 185.9 193.5 185.2C193.2 184.9 193.1 184.7 192.9 184.4C190 181.3 184.3 180.9 180.8 183.4C175.9 187 176 194 178.4 197.7C180.7 201.2 184 202.4 187.9 201.9C190.2 201.6 192.1 200.5 193.6 198.6C192.9 198 192.2 197.4 191.5 196.7C191.3 196.9 191.2 197 191.1 197.2C188.4 200.2 183.9 199.9 181.5 196.7C180.1 194.8 179.8 192.6 180.2 190.4C180.4 187.9 181.7 185.9 184.3 185ZM205.1 198.6C204.9 198.7 204.8 198.8 204.8 198.8C204 199.4 203.2 199.5 202.3 199.2C201.4 198.8 201.3 198 201.2 197.2V185.8C201.2 185.6 201.2 186 201.3 185H205.1V182H201.1V177H198.1V182.4H195.5C195.3 182.4 195 182.6 195 182.8C194.9 183.5 195 184 195 185H198.2V197.8C198.2 199.4 198.6 200.8 200 201.6C201.5 202.5 204.4 202.3 205.7 201.2C205.9 201.1 206 200.7 206 200.6C205.7 200 205.4 199.3 205.1 198.6V198.6Z" fill="black"/>
<circle cx="158" cy="123" r="9" fill="black"/>
</svg>
