<svg width="1440" height="1024" viewBox="0 0 1440 1024" fill="none" xmlns="http://www.w3.org/2000/svg">
<rect width="1440" height="1024" fill="#97B9F9"/>
<path d="M496 437.945C509.554 501.407 418 511.721 328 511.721C180 511.721 113 502.838 113 437.945C113 400.823 129.5 369.445 180 376.945C193.5 329.445 247 305.721 305 340.721C343.5 308.721 418 345.497 418 386.221C465.5 386.221 487 395.804 496 437.945Z" fill="#F9FAFB"/>
<path d="M1017.7 654.754C1000.64 717.365 1066.54 728.53 1156.54 728.53C1304.54 728.53 1371.54 719.647 1371.54 654.754C1369.71 626.642 1356.53 589.556 1304.54 593.754C1291.04 546.254 1220.7 512.809 1181.2 562.809C1131.32 519.678 1062.47 567.077 1072.7 617.809C1049.49 619.457 1027.06 620.402 1017.7 654.754Z" fill="#F9FAFB"/>
<path d="M742.945 250.031C727.701 313.109 804.286 323.807 894.286 323.807C1042.29 323.807 1109.29 314.925 1109.29 250.031C1109.29 212.91 1101.95 202.087 1057.45 198.307C1049.12 124.65 949.838 94.3154 886.445 156.586C847.945 124.587 804.286 157.584 804.286 198.307C782.945 198.307 755.445 198.307 742.945 250.031Z" fill="#F9FAFB"/>
</svg>
